<svg width="207" height="197" viewBox="0 0 207 197" fill="none" xmlns="http://www.w3.org/2000/svg">
<path d="M23.73 6.71001C23.73 6.71001 13.85 43.32 35.29 65.14C35.29 65.14 61 98.01 88.08 73.32C88.08 73.32 108.88 46.22 75.29 25.1C71.49 22.55 29.71 12.07 23.73 6.71001Z" fill="#F9F5F4" stroke="#1F604E" stroke-width="6.25" stroke-miterlimit="10" stroke-linecap="round"/>
<path d="M164.82 14.72C164.82 14.72 182.82 38.03 169.03 60.72C169.03 60.72 150.65 96.33 117.53 78.26C117.53 78.26 102.53 42.41 132.03 33.98C161.53 25.55 164.82 14.72 164.82 14.72Z" fill="#F9F5F4" stroke="#1F604E" stroke-width="6.25" stroke-miterlimit="10" stroke-linecap="round"/>
<path d="M192.27 193L8.17 192.32C8.17 192.32 -19.65 151 55.38 147.09C55.38 147.09 79.55 136.86 103.59 136.58C115.21 136.44 126.8 138.58 135.59 145.43C135.61 145.43 235.51 157.7 192.27 193Z" fill="#F9F5F4" stroke="#1F604E" stroke-width="6.25" stroke-miterlimit="10" stroke-linecap="round"/>
<path d="M104.72 89L98.85 136.75L104.72 89Z" stroke="#1F604E" stroke-width="6.25" stroke-miterlimit="10" stroke-linecap="round"/>
<path d="M147.49 53.15L104.72 89.01L54.61 41.75" stroke="#1F604E" stroke-width="6.25" stroke-miterlimit="10" stroke-linecap="round"/>
<path d="M75.4 46.5L73.77 59.82" stroke="#1F604E" stroke-width="6.25" stroke-miterlimit="10" stroke-linecap="round"/>
<path d="M46.51 49.71L65.52 52.05" stroke="#1F604E" stroke-width="6.25" stroke-miterlimit="10" stroke-linecap="round"/>
<path d="M127.99 55.69L126.1 71.08" stroke="#1F604E" stroke-width="6.25" stroke-miterlimit="10" stroke-linecap="round"/>
<path d="M153.91 58.88L140.38 59.12" stroke="#1F604E" stroke-width="6.25" stroke-miterlimit="10" stroke-linecap="round"/>
<path d="M167.73 151.93L170.49 129.43L161.73 120.25" stroke="#1F604E" stroke-width="6.25" stroke-miterlimit="10" stroke-linecap="round"/>
<path d="M177.93 122.23L170.49 129.43" stroke="#1F604E" stroke-width="6.25" stroke-miterlimit="10" stroke-linecap="round"/>
<path d="M44.83 121.37L36.93 127.68L28.63 119.38" stroke="#1F604E" stroke-width="6.25" stroke-miterlimit="10" stroke-linecap="round"/>
<path d="M34.24 149.63L36.93 127.68" stroke="#1F604E" stroke-width="6.25" stroke-miterlimit="10" stroke-linecap="round"/>
<path d="M135 166.34C137.437 166.32 139.848 165.831 142.1 164.9C143.67 164.24 146.03 163.03 146.98 161.48C147.66 160.39 148.15 158.99 146.98 157.94C145.589 156.892 143.867 156.381 142.13 156.5C139.696 156.516 137.288 157.005 135.04 157.94C133.47 158.59 131.11 159.81 130.15 161.35C129.48 162.45 128.99 163.85 130.15 164.89C131.534 165.945 133.254 166.46 134.99 166.34H135Z" fill="#1F604E"/>
<path d="M159.09 177.23C161.517 177.12 163.907 176.599 166.16 175.69C167.69 175.1 170.08 174.09 171.16 172.69C171.8 171.89 172.5 170.75 171.39 169.92C170.1 168.92 168.19 169.08 166.7 169.08C164.276 169.19 161.889 169.711 159.64 170.62C158.11 171.2 155.72 172.21 154.64 173.62C154 174.43 153.3 175.56 154.4 176.39C155.69 177.39 157.6 177.24 159.09 177.24V177.23Z" fill="#1F604E"/>
<path d="M104.18 177.78C106.414 177.728 108.631 177.392 110.78 176.78C112.952 176.266 115.043 175.452 116.99 174.36C117.7 173.92 119.48 173.02 119.19 171.95C118.9 170.88 116.74 170.95 116.08 170.95C113.849 170.997 111.634 171.333 109.49 171.95C107.313 172.459 105.219 173.274 103.27 174.37C102.57 174.8 100.79 175.71 101.08 176.77C101.37 177.83 103.52 177.77 104.18 177.77V177.78Z" fill="#1F604E"/>
<path d="M88 158.68C90.4309 158.601 92.8283 158.089 95.08 157.17C96.62 156.57 99.01 155.48 100.08 154.05C100.74 153.13 101.36 151.9 100.24 150.99C98.96 149.94 97.03 149.92 95.49 149.92C93.0629 149.996 90.6688 150.504 88.42 151.42C86.88 152.03 84.49 153.12 83.42 154.55C82.76 155.46 82.15 156.7 83.27 157.61C84.54 158.61 86.47 158.68 88.01 158.68H88Z" fill="#1F604E"/>
<path d="M66.05 178.46C68.4768 178.358 70.8682 177.841 73.12 176.93C74.65 176.34 77.04 175.32 78.12 173.93C78.76 173.1 79.45 171.93 78.34 171.11C77.05 170.11 75.14 170.23 73.64 170.23C71.2133 170.333 68.8221 170.85 66.57 171.76C65.04 172.35 62.65 173.37 61.57 174.76C60.93 175.59 60.24 176.76 61.35 177.58C62.64 178.58 64.55 178.46 66.05 178.46Z" fill="#1F604E"/>
<path d="M36.65 169.77C38.8807 169.723 41.0958 169.387 43.24 168.77C45.4171 168.261 47.5112 167.446 49.46 166.35C50.16 165.92 51.94 165.01 51.65 163.94C51.36 162.87 49.21 162.94 48.55 162.94C46.3161 162.988 44.0978 163.324 41.95 163.94C39.7761 164.449 37.6853 165.264 35.74 166.36C35.03 166.79 33.26 167.7 33.54 168.77C33.82 169.84 35.99 169.77 36.65 169.77Z" fill="#1F604E"/>
</svg>
