<svg width="206" height="178" viewBox="0 0 206 178" fill="none" xmlns="http://www.w3.org/2000/svg">
<path d="M170.312 65.9491L113.73 62.4587L112.3 85.6446L168.882 89.1351L170.312 65.9491Z" fill="#F9F5F4" stroke="#1F604E" stroke-width="4.74" stroke-miterlimit="10" stroke-linecap="round"/>
<path d="M72.3813 102.328L38.8676 13.9164L23.6914 19.6692L57.205 108.08L72.3813 102.328Z" fill="#F9F5F4" stroke="#1F604E" stroke-width="4.74" stroke-miterlimit="10" stroke-linecap="round"/>
<path d="M48.1759 5.02968L6.86443 2.48126C5.44224 2.39352 4.21822 3.47532 4.13048 4.89751L3.23524 19.4099C3.14751 20.8321 4.22929 22.0561 5.65148 22.1439L46.9629 24.6923C48.3851 24.78 49.6092 23.6982 49.6969 22.2761L50.5922 7.76364C50.6799 6.34145 49.5981 5.11742 48.1759 5.02968Z" fill="#F9F5F4" stroke="#1F604E" stroke-width="4.74" stroke-miterlimit="10" stroke-linecap="round"/>
<path d="M108.388 44.8774L177.727 49.1548C178.836 49.2232 179.872 49.7294 180.608 50.5621C181.344 51.3948 181.719 52.4857 181.651 53.5948L180.727 68.5663C180.708 68.8681 180.571 69.1501 180.344 69.3504C180.118 69.5506 179.821 69.6526 179.519 69.634L104.102 64.9817C103.801 64.9631 103.519 64.8253 103.318 64.5988C103.118 64.3722 103.016 64.0754 103.035 63.7736L103.958 48.8021C104.027 47.6947 104.531 46.6596 105.362 45.9238C106.192 45.1881 107.281 44.8118 108.388 44.8774Z" fill="#F9F5F4" stroke="#1F604E" stroke-width="4.74" stroke-miterlimit="10" stroke-linecap="round"/>
<path d="M185.383 83.9984L103.139 78.925C101.056 78.7964 99.2624 80.3814 99.1339 82.4651L97.2732 112.628C97.1447 114.711 98.7296 116.505 100.813 116.633L183.057 121.707C185.141 121.835 186.934 120.25 187.063 118.167L188.923 88.004C189.052 85.9203 187.467 84.127 185.383 83.9984Z" fill="#F9F5F4" stroke="#1F604E" stroke-width="4.74" stroke-miterlimit="10" stroke-linecap="round"/>
<path d="M200.226 111.991L49.1528 97.364C47.2617 97.181 45.5803 98.5655 45.3973 100.457L41.3402 142.361C41.1571 144.252 42.5417 145.933 44.4327 146.116L195.506 160.743C197.397 160.926 199.079 159.541 199.262 157.65L203.319 115.746C203.502 113.855 202.117 112.174 200.226 111.991Z" fill="#F9F5F4" stroke="#1F604E" stroke-width="4.74" stroke-miterlimit="10" stroke-linecap="round"/>
<path d="M67.53 174.95C85.1368 174.95 99.41 160.677 99.41 143.07C99.41 125.463 85.1368 111.19 67.53 111.19C49.9232 111.19 35.65 125.463 35.65 143.07C35.65 160.677 49.9232 174.95 67.53 174.95Z" fill="#F9F5F4" stroke="#1F604E" stroke-width="4.74" stroke-miterlimit="10" stroke-linecap="round"/>
<path d="M67.53 161.94C77.9516 161.94 86.4 153.492 86.4 143.07C86.4 132.648 77.9516 124.2 67.53 124.2C57.1084 124.2 48.66 132.648 48.66 143.07C48.66 153.492 57.1084 161.94 67.53 161.94Z" fill="#F9F5F4" stroke="#65BDA3" stroke-width="5.93" stroke-miterlimit="10" stroke-linecap="round"/>
<path d="M161.56 174.95C173.738 174.95 183.61 165.078 183.61 152.9C183.61 140.722 173.738 130.85 161.56 130.85C149.382 130.85 139.51 140.722 139.51 152.9C139.51 165.078 149.382 174.95 161.56 174.95Z" fill="#F9F5F4" stroke="#1F604E" stroke-width="4.74" stroke-miterlimit="10" stroke-linecap="round"/>
<path d="M161.56 165.95C168.767 165.95 174.61 160.107 174.61 152.9C174.61 145.693 168.767 139.85 161.56 139.85C154.353 139.85 148.51 145.693 148.51 152.9C148.51 160.107 154.353 165.95 161.56 165.95Z" fill="#F9F5F4" stroke="#65BDA3" stroke-width="5.93" stroke-miterlimit="10"/>
<path d="M118.42 92.22L117.45 103.99" stroke="#1F604E" stroke-width="4.74" stroke-miterlimit="10" stroke-linecap="round"/>
<path d="M143.1 92.22L142.44 106.41" stroke="#1F604E" stroke-width="4.74" stroke-miterlimit="10" stroke-linecap="round"/>
<path d="M168.29 94.54L166.41 108.74" stroke="#1F604E" stroke-width="4.74" stroke-miterlimit="10" stroke-linecap="round"/>
</svg>
