<svg width="159" height="192" viewBox="0 0 159 192" fill="none" xmlns="http://www.w3.org/2000/svg">
<path d="M48.11 62C48.11 62 27.05 22.13 77.94 11.2C77.94 11.2 116.85 4.92001 108.32 63.42L48.11 62Z" fill="#F9F5F4" stroke="#1F604E" stroke-width="5.42" stroke-miterlimit="10" stroke-linecap="round"/>
<path d="M70.69 175.13C68.56 176.39 90.41 176.48 88.95 173.33L95.32 126.33H60.57V174L70.69 175.13Z" fill="#F9F5F4" stroke="#1F604E" stroke-width="5.42" stroke-miterlimit="10" stroke-linecap="round"/>
<path d="M78.69 132.29C70.69 131.92 76.55 188.08 61.81 188.89C3.46997 192.12 -13.66 54.1 78.69 56.33C167.11 58.47 149.44 190.63 98.55 188.89C83.56 188.38 89.36 132.79 78.69 132.29Z" fill="#F9F5F4" stroke="#1F604E" stroke-width="5.42" stroke-miterlimit="10" stroke-linecap="round"/>
<path d="M73.0999 88.1C77.8275 88.1 81.6599 84.2676 81.6599 79.54C81.6599 74.8125 77.8275 70.98 73.0999 70.98C68.3724 70.98 64.5399 74.8125 64.5399 79.54C64.5399 84.2676 68.3724 88.1 73.0999 88.1Z" stroke="#65BDA3" stroke-width="5.42" stroke-miterlimit="10" stroke-linecap="round"/>
<path d="M45.95 154.28C52.0748 154.28 57.0399 149.315 57.0399 143.19C57.0399 137.065 52.0748 132.1 45.95 132.1C39.8251 132.1 34.86 137.065 34.86 143.19C34.86 149.315 39.8251 154.28 45.95 154.28Z" stroke="#65BDA3" stroke-width="5.42" stroke-miterlimit="10" stroke-linecap="round"/>
<path d="M110.04 151.57C116.165 151.57 121.13 146.605 121.13 140.48C121.13 134.355 116.165 129.39 110.04 129.39C103.915 129.39 98.95 134.355 98.95 140.48C98.95 146.605 103.915 151.57 110.04 151.57Z" stroke="#65BDA3" stroke-width="5.42" stroke-miterlimit="10" stroke-linecap="round"/>
<path d="M50.09 121.25C57.2034 121.25 62.9699 115.483 62.9699 108.37C62.9699 101.257 57.2034 95.49 50.09 95.49C42.9766 95.49 37.21 101.257 37.21 108.37C37.21 115.483 42.9766 121.25 50.09 121.25Z" stroke="#65BDA3" stroke-width="5.42" stroke-miterlimit="10" stroke-linecap="round"/>
<path d="M104.13 116.96C113.519 116.96 121.13 109.349 121.13 99.96C121.13 90.5712 113.519 82.96 104.13 82.96C94.7411 82.96 87.13 90.5712 87.13 99.96C87.13 109.349 94.7411 116.96 104.13 116.96Z" stroke="#65BDA3" stroke-width="5.42" stroke-miterlimit="10" stroke-linecap="round"/>
<path d="M142.98 69.74L140.86 82.95L132.59 88.11" stroke="#1F604E" stroke-width="5.42" stroke-miterlimit="10" stroke-linecap="round"/>
<path d="M155.64 121.25L140.86 118.89" stroke="#1F604E" stroke-width="5.42" stroke-miterlimit="10" stroke-linecap="round"/>
<path d="M142.98 179.71V168.04L132.59 163.2" stroke="#1F604E" stroke-width="5.42" stroke-miterlimit="10" stroke-linecap="round"/>
<path d="M15.39 180.95L16.63 170.28L23.26 163.2" stroke="#1F604E" stroke-width="5.42" stroke-miterlimit="10" stroke-linecap="round"/>
<path d="M2.96994 126.34L4.95999 122.63H13.74" stroke="#1F604E" stroke-width="5.42" stroke-miterlimit="10" stroke-linecap="round"/>
<path d="M12.65 70.98V82.95L20.86 89.23" stroke="#1F604E" stroke-width="5.42" stroke-miterlimit="10" stroke-linecap="round"/>
<path d="M110.04 2.71001L101.52 9.17001L99.9 18.23" stroke="#1F604E" stroke-width="5.42" stroke-miterlimit="10" stroke-linecap="round"/>
<path d="M43.7899 4.20001L52.37 10.47L54.36 21.39" stroke="#1F604E" stroke-width="5.42" stroke-miterlimit="10" stroke-linecap="round"/>
<path d="M63.05 36.22C64.4196 36.22 65.53 35.1097 65.53 33.74C65.53 32.3703 64.4196 31.26 63.05 31.26C61.6803 31.26 60.57 32.3703 60.57 33.74C60.57 35.1097 61.6803 36.22 63.05 36.22Z" fill="#1F604E"/>
<path d="M90.76 36.22C92.1296 36.22 93.24 35.1097 93.24 33.74C93.24 32.3703 92.1296 31.26 90.76 31.26C89.3903 31.26 88.28 32.3703 88.28 33.74C88.28 35.1097 89.3903 36.22 90.76 36.22Z" fill="#1F604E"/>
</svg>
