<svg width="206" height="205" viewBox="0 0 206 205" fill="none" xmlns="http://www.w3.org/2000/svg">
<path d="M151.43 155.15L138.37 200.9L137.98 202.23H65.68L52.27 155.15H151.43Z" fill="#F9F5F4" stroke="#1F604E" stroke-width="4.52" stroke-miterlimit="10"/>
<path d="M150.14 137.46H53.56C48.5287 137.46 44.45 141.539 44.45 146.57V148.94C44.45 153.971 48.5287 158.05 53.56 158.05H150.14C155.171 158.05 159.25 153.971 159.25 148.94V146.57C159.25 141.539 155.171 137.46 150.14 137.46Z" fill="#F9F5F4" stroke="#1F604E" stroke-width="4.52" stroke-miterlimit="10"/>
<path d="M134.32 58.28C135.917 60.5166 136.764 63.2018 136.74 65.95C136.74 67.7262 136.389 69.485 135.709 71.1255C135.028 72.766 134.03 74.256 132.772 75.5101C131.514 76.7642 130.021 77.7578 128.379 78.4339C126.736 79.11 124.976 79.4553 123.2 79.45C120.432 79.4596 117.732 78.599 115.48 76.99C114.559 79.6412 112.833 81.9386 110.544 83.5613C108.254 85.184 105.514 86.0509 102.708 86.041C99.9014 86.0311 97.168 85.1448 94.8897 83.506C92.6114 81.8672 90.9019 79.5576 90 76.9C87.7193 78.5597 84.9707 79.4526 82.15 79.45C79.5006 79.4455 76.9109 78.6621 74.7033 77.1973C72.4956 75.7324 70.7675 73.6508 69.7337 71.2113C68.7 68.7719 68.4063 66.0824 68.8893 63.4773C69.3722 60.8723 70.6105 58.4668 72.45 56.56C69.5459 56.0458 66.8905 54.5934 64.891 52.4254C62.8914 50.2574 61.6581 47.4935 61.38 44.5574C61.102 41.6212 61.7945 38.6749 63.3515 36.1701C64.9085 33.6653 67.244 31.7402 70 30.69C69.1132 28.8783 68.6547 26.8871 68.6599 24.87C68.6586 23.0976 69.0066 21.3424 69.684 19.7045C70.3613 18.0667 71.3548 16.5784 72.6076 15.3247C73.8604 14.071 75.3479 13.0764 76.9853 12.3978C78.6226 11.7193 80.3776 11.37 82.15 11.37C84.4609 11.3791 86.7317 11.9744 88.75 13.1C89.4481 10.1367 91.1266 7.49606 93.5135 5.60619C95.9003 3.71632 98.8556 2.688 101.9 2.688C104.944 2.688 107.9 3.71632 110.286 5.60619C112.673 7.49606 114.352 10.1367 115.05 13.1C117.054 11.9439 119.326 11.3336 121.64 11.33C125.225 11.3273 128.664 12.7475 131.203 15.2787C133.742 17.8099 135.172 21.2451 135.18 24.83C135.182 27.2438 134.525 29.6124 133.28 31.68C136.412 32.1203 139.29 33.6456 141.413 35.99C143.536 38.3344 144.769 41.3494 144.898 44.5096C145.026 47.6698 144.042 50.7749 142.116 53.2839C140.191 55.793 137.446 57.5468 134.36 58.24L134.32 58.28Z" fill="#F9F5F4" stroke="#1F604E" stroke-width="4.52" stroke-miterlimit="10"/>
<path d="M120.57 46.9C120.573 48.0635 120.346 49.2162 119.903 50.2921C119.46 51.3681 118.81 52.3463 117.989 53.1709C117.168 53.9954 116.193 54.6503 115.119 55.0979C114.045 55.5456 112.893 55.7774 111.73 55.78C110.656 55.7697 109.592 55.5805 108.58 55.22C108.117 57.3611 106.877 59.2544 105.099 60.5339C103.321 61.8133 101.132 62.3879 98.9546 62.1466C96.7774 61.9052 94.7672 60.8651 93.3126 59.2273C91.858 57.5895 91.0626 55.4704 91.08 53.28C91.0824 52.4478 91.2001 51.6199 91.43 50.82H91.08C89.6806 50.8281 88.299 50.5054 87.048 49.878C85.797 49.2507 84.712 48.3366 83.8815 47.2102C83.0509 46.0839 82.4983 44.7771 82.2688 43.3966C82.0392 42.0161 82.1393 40.6009 82.5607 39.2664C82.982 37.9319 83.7128 36.7158 84.6935 35.7174C85.6742 34.719 86.877 33.9666 88.2038 33.5214C89.5306 33.0762 90.9438 32.951 92.3282 33.1558C93.7126 33.3606 95.0289 33.8897 96.17 34.7V34.35C96.17 31.9949 97.1055 29.7362 98.7709 28.0709C100.436 26.4056 102.695 25.47 105.05 25.47C107.405 25.47 109.664 26.4056 111.329 28.0709C112.994 29.7362 113.93 31.9949 113.93 34.35C113.932 35.6651 113.638 36.9637 113.07 38.15C115.156 38.4802 117.056 39.5419 118.43 41.1452C119.804 42.7484 120.563 44.7884 120.57 46.9Z" fill="#F9F5F4" stroke="#65BDA3" stroke-width="4.52" stroke-miterlimit="10"/>
<path d="M192.05 105C192.527 106.922 192.38 108.947 191.63 110.78C190.668 113.168 188.798 115.077 186.431 116.089C184.063 117.101 181.391 117.134 179 116.18C177.142 115.452 175.561 114.157 174.48 112.48C173.159 114.017 171.39 115.102 169.422 115.583C167.454 116.064 165.384 115.917 163.503 115.163C161.622 114.409 160.024 113.085 158.934 111.378C157.843 109.67 157.313 107.664 157.42 105.64C155.065 106.226 152.577 105.91 150.443 104.755C148.31 103.599 146.686 101.688 145.89 99.3958C145.094 97.1037 145.184 94.5968 146.143 92.3679C147.101 90.1389 148.859 88.3491 151.07 87.35C149.256 86.2353 147.859 84.556 147.092 82.57C146.325 80.5841 146.232 78.4013 146.826 76.357C147.42 74.3126 148.668 72.5199 150.38 71.254C152.091 69.9882 154.171 69.3193 156.3 69.35C156.188 67.7116 156.492 66.0715 157.186 64.5828C157.879 63.094 158.938 61.8051 160.264 60.8365C161.59 59.8679 163.14 59.251 164.769 59.0435C166.398 58.8361 168.053 59.0447 169.58 59.65C171.14 60.2616 172.518 61.2636 173.58 62.56C174.836 60.763 176.662 59.4429 178.762 58.8136C180.863 58.1843 183.114 58.2828 185.151 59.0931C187.188 59.9033 188.892 61.3779 189.986 63.2777C191.081 65.1775 191.501 67.3912 191.18 69.56C192.832 69.3217 194.517 69.5182 196.07 70.13C198.471 71.0811 200.397 72.947 201.422 75.3173C202.448 77.6877 202.49 80.3684 201.54 82.77C200.9 84.3885 199.832 85.8023 198.45 86.86C200.501 87.9566 202.091 89.7514 202.932 91.9192C203.774 94.087 203.811 96.4845 203.037 98.6774C202.263 100.87 200.73 102.714 198.714 103.873C196.699 105.033 194.335 105.433 192.05 105Z" fill="#F9F5F4" stroke="#1F604E" stroke-width="4.52" stroke-miterlimit="10"/>
<path d="M185.87 93.68C185.248 95.2544 184.027 96.5178 182.475 97.1927C180.922 97.8676 179.166 97.899 177.59 97.28C176.86 96.9916 176.184 96.5826 175.59 96.07C174.713 97.397 173.372 98.3486 171.83 98.7383C170.288 99.128 168.656 98.9276 167.254 98.1766C165.852 97.4255 164.781 96.1779 164.252 94.6782C163.722 93.1786 163.771 91.5351 164.39 90.07C164.613 89.5165 164.909 88.9952 165.27 88.52L165.04 88.43C164.1 88.0639 163.26 87.4809 162.588 86.7284C161.917 85.976 161.432 85.0755 161.175 84.1003C160.918 83.1251 160.894 82.1028 161.107 81.1169C161.32 80.131 161.762 79.2093 162.399 78.427C163.036 77.6446 163.848 77.0238 164.77 76.6152C165.692 76.2066 166.698 76.0217 167.705 76.0756C168.712 76.1296 169.692 76.4208 170.566 76.9255C171.439 77.4302 172.18 78.1342 172.73 78.98L172.82 78.75C173.13 77.9686 173.591 77.256 174.176 76.6527C174.761 76.0494 175.46 75.5673 176.231 75.234C177.003 74.9006 177.833 74.7225 178.673 74.7098C179.514 74.6971 180.349 74.8501 181.13 75.16C181.911 75.4699 182.624 75.9307 183.227 76.5161C183.831 77.1014 184.313 77.7998 184.646 78.5715C184.979 79.3431 185.158 80.1729 185.17 81.0134C185.183 81.8539 185.03 82.6886 184.72 83.47C184.372 84.3505 183.828 85.1404 183.13 85.78C184.455 86.5524 185.46 87.7737 185.962 89.2228C186.465 90.6719 186.432 92.253 185.87 93.68Z" fill="#F9F5F4" stroke="#65BDA3" stroke-width="4.52" stroke-miterlimit="10"/>
<path d="M50 105C50.469 106.924 50.3186 108.947 49.57 110.78C48.6072 113.153 46.7475 115.051 44.3943 116.062C42.0411 117.073 39.3842 117.115 37 116.18C35.1465 115.449 33.5691 114.155 32.49 112.48C31.17 114.021 29.4006 115.109 27.4302 115.593C25.4599 116.077 23.3875 115.931 21.5043 115.176C19.621 114.422 18.0214 113.096 16.9301 111.386C15.8388 109.675 15.3107 107.666 15.42 105.64C13.0531 106.274 10.5341 105.99 8.36724 104.846C6.20039 103.702 4.5456 101.782 3.73406 99.4702C2.92252 97.1582 3.0141 94.6249 3.99053 92.3776C4.96696 90.1302 6.75617 88.3346 8.99999 87.35C7.18629 86.2353 5.78869 84.556 5.0219 82.57C4.25511 80.5841 4.16156 78.4013 4.75554 76.357C5.34953 74.3126 6.59824 72.5199 8.30987 71.254C10.0215 69.9882 12.1013 69.3193 14.23 69.35C14.119 67.9023 14.3414 66.4484 14.88 65.1C15.5057 63.524 16.5329 62.139 17.8595 61.0827C19.1861 60.0265 20.7659 59.3356 22.4421 59.0788C24.1183 58.8221 25.8325 59.0083 27.4145 59.6189C28.9964 60.2296 30.3911 61.2436 31.46 62.56C32.716 60.763 34.5421 59.4429 36.6423 58.8136C38.7425 58.1843 40.9937 58.2828 43.0309 59.0931C45.0682 59.9033 46.772 61.3779 47.8663 63.2777C48.9606 65.1775 49.3813 67.3912 49.06 69.56C50.7118 69.3217 52.3973 69.5182 53.95 70.13C55.5517 70.7552 56.9584 71.7949 58.0261 73.1426C59.0938 74.4903 59.7841 76.0976 60.0263 77.7999C60.2685 79.5021 60.0538 81.2382 59.4043 82.8302C58.7548 84.4222 57.6938 85.8129 56.33 86.86C58.3646 87.9592 59.9412 89.7471 60.7771 91.9033C61.6131 94.0595 61.6537 96.4429 60.8918 98.6263C60.1299 100.81 58.6152 102.65 56.6193 103.818C54.6234 104.986 52.2767 105.405 50 105Z" fill="#F9F5F4" stroke="#1F604E" stroke-width="4.52" stroke-miterlimit="10"/>
<path d="M43.8499 93.68C43.2281 95.2544 42.007 96.5178 40.4546 97.1927C38.9022 97.8676 37.1455 97.899 35.57 97.28C34.8409 96.9901 34.1651 96.5812 33.57 96.07C32.6931 97.397 31.3523 98.3486 29.8102 98.7383C28.2682 99.128 26.6363 98.9276 25.2343 98.1766C23.8323 97.4255 22.7614 96.1779 22.2316 94.6782C21.7017 93.1786 21.751 91.5351 22.3699 90.07C22.5929 89.5165 22.8889 88.9952 23.2499 88.52L23.02 88.43C22.0801 88.0639 21.2401 87.4809 20.5685 86.7284C19.8968 85.976 19.4125 85.0755 19.155 84.1003C18.8976 83.1251 18.8742 82.1028 19.0869 81.1169C19.2995 80.131 19.7423 79.2093 20.3789 78.427C21.0155 77.6446 21.828 77.0238 22.7501 76.6152C23.6723 76.2066 24.678 76.0217 25.6851 76.0756C26.6923 76.1296 27.6724 76.4208 28.5457 76.9255C29.4189 77.4302 30.1605 78.1342 30.71 78.98L30.8099 78.75C31.0995 77.9415 31.5488 77.1995 32.131 76.5683C32.7133 75.9371 33.4167 75.4295 34.1992 75.0758C34.9818 74.7221 35.8276 74.5295 36.6861 74.5094C37.5447 74.4894 38.3984 74.6424 39.1966 74.9593C39.9948 75.2761 40.721 75.7504 41.3321 76.3538C41.9432 76.9572 42.4266 77.6774 42.7535 78.4716C43.0804 79.2657 43.2441 80.1175 43.2349 80.9762C43.2257 81.835 43.0438 82.6831 42.7 83.47C42.3556 84.3525 41.8113 85.1432 41.1099 85.78C42.435 86.5524 43.4398 87.7737 43.9424 89.2228C44.445 90.6719 44.4122 92.253 43.8499 93.68Z" fill="#F9F5F4" stroke="#65BDA3" stroke-width="4.52" stroke-miterlimit="10"/>
<path d="M60.5999 99C60.5999 99 80.87 118.6 82.2 137.5" stroke="#1F604E" stroke-width="4.52" stroke-miterlimit="10"/>
<path d="M145.5 98C145.5 98 128 114.47 124.5 137.51" stroke="#1F604E" stroke-width="4.52" stroke-miterlimit="10"/>
<path d="M102.72 86.09L101.85 137.46" stroke="#1F604E" stroke-width="4.52" stroke-miterlimit="10"/>
</svg>
