<svg width="221" height="221" viewBox="0 0 221 221" fill="none" xmlns="http://www.w3.org/2000/svg">
<path d="M202.05 110.6C201.05 110.51 199.98 110.47 198.94 110.47C193.307 110.47 187.729 111.58 182.524 113.736C177.32 115.892 172.591 119.052 168.609 123.036C164.626 127.02 161.467 131.749 159.312 136.954C157.157 142.158 156.049 147.737 156.05 153.37V153.8H132.37C130.72 147.452 130.547 140.81 131.863 134.384C133.179 127.959 135.95 121.92 139.962 116.731C143.975 111.543 149.123 107.342 155.011 104.452C160.899 101.563 167.371 100.06 173.93 100.06C184.274 100.034 194.272 103.782 202.05 110.6Z" fill="#F9F5F4" stroke="#1F604E" stroke-width="5.08" stroke-miterlimit="10" stroke-linecap="round"/>
<path d="M19.21 112.28C20.21 112.2 21.28 112.15 22.32 112.15C33.6961 112.153 44.6053 116.674 52.6484 124.719C60.6916 132.764 65.21 143.674 65.21 155.05V155.48H88.89C91.2085 146.61 90.6242 137.23 87.2228 128.716C83.8214 120.202 77.7818 113.001 69.9895 108.17C62.1972 103.339 53.0621 101.132 43.9236 101.871C34.7851 102.611 26.124 106.259 19.21 112.28Z" fill="#F9F5F4" stroke="#1F604E" stroke-width="5.08" stroke-miterlimit="10" stroke-linecap="round"/>
<path d="M109.55 124.65C109.55 143.05 96.55 158.95 77.71 166.38C85.45 158.43 90.11 148.32 90.11 137.38C90.11 111.81 65.11 91.11 34.25 91.11C26.0367 91.0704 17.8911 92.5977 10.25 95.61C20.44 85.11 36.13 78.41 53.66 78.41C84.54 78.38 109.55 99.08 109.55 124.65Z" fill="#F9F5F4" stroke="#1F604E" stroke-width="5.08" stroke-miterlimit="10" stroke-linecap="round"/>
<path d="M108.75 127.76C108.75 147.4 122.05 164.37 141.32 172.3C133.41 163.81 128.64 153.03 128.64 141.3C128.64 114 154.22 91.92 185.76 91.92C194.169 91.883 202.503 93.511 210.28 96.71C199.85 85.51 183.82 78.36 165.88 78.36C134.33 78.38 108.75 100.47 108.75 127.76Z" fill="#F9F5F4" stroke="#1F604E" stroke-width="5.08" stroke-miterlimit="10" stroke-linecap="round"/>
<path d="M65.25 218.23H156.55L176.64 164.06H39.04L65.25 218.23Z" fill="#F9F5F4" stroke="#1F604E" stroke-width="5.08" stroke-miterlimit="10" stroke-linecap="round"/>
<path d="M181.67 143.53H34.01C29.5475 143.53 25.93 147.148 25.93 151.61V155.98C25.93 160.442 29.5475 164.06 34.01 164.06H181.67C186.132 164.06 189.75 160.442 189.75 155.98V151.61C189.75 147.148 186.132 143.53 181.67 143.53Z" fill="#F9F5F4" stroke="#1F604E" stroke-width="5.08" stroke-miterlimit="10" stroke-linecap="round"/>
<path d="M74.3 81.64L108.75 44.59L145.45 81.64" stroke="#1F604E" stroke-width="5.08" stroke-miterlimit="10" stroke-linecap="round"/>
<path d="M136.38 164.27C136.38 168.418 134.732 172.396 131.799 175.329C128.866 178.262 124.888 179.91 120.74 179.91C118.303 179.92 115.898 179.355 113.721 178.26C111.543 177.166 109.655 175.572 108.21 173.61C106.853 175.37 105.138 176.821 103.177 177.866C101.216 178.912 99.0547 179.527 96.8373 179.673C94.6199 179.818 92.397 179.489 90.3165 178.709C88.236 177.928 86.3456 176.713 84.7711 175.145C83.1966 173.577 81.974 171.692 81.1848 169.614C80.3956 167.537 80.0579 165.315 80.194 163.097C80.3301 160.879 80.937 158.716 81.9743 156.751C83.0116 154.786 84.4555 153.064 86.21 151.7C84.4505 150.333 83.0032 148.607 81.9651 146.635C80.927 144.664 80.3221 142.494 80.1907 140.27C80.0594 138.046 80.4047 135.82 81.2035 133.74C82.0024 131.66 83.2364 129.775 84.8228 128.211C86.4093 126.647 88.3116 125.439 90.4024 124.67C92.4932 123.901 94.7243 123.587 96.9462 123.75C99.1681 123.912 101.33 124.548 103.286 125.614C105.242 126.68 106.948 128.151 108.29 129.93C109.73 127.99 111.607 126.416 113.768 125.336C115.929 124.255 118.314 123.698 120.73 123.71C124.007 123.711 127.202 124.742 129.862 126.657C132.521 128.572 134.512 131.274 135.554 134.382C136.595 137.49 136.633 140.846 135.663 143.977C134.694 147.108 132.765 149.855 130.15 151.83C132.091 153.27 133.666 155.147 134.748 157.307C135.83 159.468 136.389 161.853 136.38 164.27Z" fill="#F9F5F4" stroke="#1F604E" stroke-width="5.08" stroke-miterlimit="10" stroke-linecap="round"/>
<path d="M108.28 163.03C114.477 163.03 119.5 158.007 119.5 151.81C119.5 145.613 114.477 140.59 108.28 140.59C102.083 140.59 97.06 145.613 97.06 151.81C97.06 158.007 102.083 163.03 108.28 163.03Z" fill="#F9F5F4" stroke="#1F604E" stroke-width="5.08" stroke-miterlimit="10" stroke-linecap="round"/>
<path d="M108.75 53.22C113.516 53.22 117.38 49.3562 117.38 44.59C117.38 39.8238 113.516 35.96 108.75 35.96C103.984 35.96 100.12 39.8238 100.12 44.59C100.12 49.3562 103.984 53.22 108.75 53.22Z" fill="#F9F5F4" stroke="#1F604E" stroke-width="5.08" stroke-miterlimit="10" stroke-linecap="round"/>
<path d="M108.75 36V23.62C96.92 22.31 100.13 -3.25 115.48 5.05" stroke="#1F604E" stroke-width="5.08" stroke-miterlimit="10" stroke-linecap="round"/>
</svg>
