<svg width="201" height="164" viewBox="0 0 201 164" fill="none" xmlns="http://www.w3.org/2000/svg">
<path d="M197.97 58.75H2.26999V78.8H197.97V58.75Z" fill="#F9F5F4"/>
<path d="M195.83 60.9V76.65H4.42V60.9H195.83ZM200.13 56.6H0.130005V81H200.13V56.6Z" fill="#1F604E"/>
<path d="M197.97 115.04H2.26999V135.09H197.97V115.04Z" fill="#F9F5F4"/>
<path d="M195.83 117.19V132.94H4.42V117.19H195.83ZM200.13 112.89H0.130005V137.24H200.13V112.89Z" fill="#1F604E"/>
<path d="M24.77 161.08V31.3L40.59 4.32002L56.44 31.3V161.08H24.77Z" fill="#F9F5F4"/>
<path d="M40.59 8.57002L54.29 31.88V158.94H26.92V31.88L40.59 8.57002ZM40.59 0.0800018L22.59 30.71V163.23H58.59V30.71L40.59 0.0800018Z" fill="#1F604E"/>
<path d="M84.77 161.08V31.3L100.58 4.32002L116.39 31.3V161.08H84.77Z" fill="#F9F5F4"/>
<path d="M100.58 8.57002L114.24 31.88V158.94H86.92V31.88L100.58 8.57002ZM100.58 0.0800018L82.58 30.71V163.23H118.5V30.71L100.5 0.0800018H100.58Z" fill="#1F604E"/>
<path d="M144.58 161.08V31.3L160.4 4.32002L176.21 31.3V161.08H144.58Z" fill="#F9F5F4"/>
<path d="M160.4 8.57002L174.06 31.88V158.94H146.73V31.88L160.4 8.57002ZM160.4 0.0800018L142.4 30.71V163.23H178.33V30.71L160.33 0.0800018H160.4Z" fill="#1F604E"/>
<path d="M47.79 66.13H33.42V71.42H47.79V66.13Z" fill="#65BDA3"/>
<path d="M107.76 66.13H93.39V71.42H107.76V66.13Z" fill="#65BDA3"/>
<path d="M167.58 66.13H153.21V71.42H167.58V66.13Z" fill="#65BDA3"/>
<path d="M167.58 122.42H153.21V127.71H167.58V122.42Z" fill="#65BDA3"/>
<path d="M107.76 122.42H93.39V127.71H107.76V122.42Z" fill="#65BDA3"/>
<path d="M47.79 122.42H33.42V127.71H47.79V122.42Z" fill="#65BDA3"/>
</svg>
