<svg width="199" height="170" viewBox="0 0 199 170" fill="none" xmlns="http://www.w3.org/2000/svg">
<path d="M112.56 148.25C109.15 148.25 102.56 153.81 98.9999 153.77C95.4399 153.73 88.8499 148.29 85.4399 148.25C84.1699 148.25 83.4399 148.58 83.0499 149.19C82.7525 149.841 82.6318 150.558 82.6999 151.27C82.6999 155.82 88.4199 158.72 91.2899 160.57C94.1599 162.42 96.7099 166.57 98.3799 169.69L98.4499 169.83H99.5399L99.6199 169.69C101.29 166.58 103.82 162.42 106.71 160.57C109.6 158.72 115.26 155.82 115.3 151.27C115.368 150.558 115.247 149.841 114.95 149.19C114.58 148.58 113.83 148.24 112.56 148.25Z" fill="#303030"/>
<path d="M145.08 103.31C145.554 103.225 145.984 102.981 146.299 102.617C146.614 102.252 146.795 101.791 146.81 101.31C146.81 100.57 146.3 99.69 146.32 99.18C146.26 98.37 148.19 96.56 150.32 94.99C152.45 93.42 154.74 91.99 155.66 91.28H156.66C159.66 95.22 160.89 95.57 160.88 98.28C160.88 98.61 160.74 98.69 160.34 98.82C159.75 98.97 158.75 98.91 157.88 99.09C157.39 99.1308 156.936 99.3642 156.617 99.739C156.298 100.114 156.141 100.6 156.18 101.09C156.18 101.78 156.93 106.79 156.92 107.37C156.92 109.95 154.19 112.29 150.92 113.94C148.187 115.366 145.214 116.275 142.15 116.62H141.8L141.9 116.96C142.887 119.593 144.204 122.089 145.82 124.39C147.61 126.96 149.47 129.14 151.01 129.19C153.24 129.19 156.61 126.61 159.54 123.53C162.47 120.45 164.86 116.85 164.88 114.53C164.863 114.342 164.799 114.161 164.695 114.004C164.59 113.846 164.447 113.718 164.28 113.63C164.04 113.45 163.9 113.32 163.89 113.18C164.04 112.64 166.61 105.04 166.61 102.87C166.61 94.39 164.31 88.14 155.94 87.19V86.61C158.83 86.09 161.21 84.37 161.19 80.42C161.19 77.31 159.45 74.3 159.46 71.42C159.46 71.07 159.4 70.65 159.4 70.23C159.45 69.31 159.54 68.58 161.05 68.54C161.92 68.54 162.53 69.29 163.27 70.17C163.612 70.6952 164.067 71.1373 164.601 71.4643C165.136 71.7913 165.737 71.9948 166.36 72.06H166.42L167.35 71.65V71.52C167.492 71.1656 167.576 70.7909 167.6 70.41C167.6 68.52 164.95 63.58 164.51 62.76C158.76 52.65 148.59 41.69 143.2 31.61L143.12 31.48H143C133.29 31.2 128.9 28.83 126.33 26.54C123.76 24.25 123.01 21.91 120.48 21.87C119.251 22.2016 118.08 22.721 117.01 23.41C116.012 24.0444 114.932 24.539 113.8 24.88C112.57 24.3227 111.414 23.6139 110.36 22.77C108.58 21.55 106.36 20.03 104.36 18.83L104.01 19.21C104.711 20.2587 105.479 21.2608 106.31 22.21C106.549 22.4666 106.733 22.7691 106.852 23.0992C106.971 23.4292 107.021 23.7799 107 24.13C107 24.61 105.79 26.99 105.76 27.77C105.788 28.6544 105.895 29.5346 106.08 30.4C106.34 31.47 106.6 32.58 107.51 32.67C108.21 32.67 112.17 31.67 112.7 31.67C115.069 31.9782 117.409 32.473 119.7 33.15C121.14 33.53 122.51 33.91 123.53 34.2L124.77 34.56L125.12 34.66H125.21C125.63 34.9 127.71 36.66 128.62 36.66C129.53 36.66 131.51 35.37 131.96 35.4C132.71 35.4 135.36 37.22 137.7 39.17C140.04 41.12 142.29 43.17 142.53 43.46C143.59 44.6 154.27 58.87 154.21 62.35C154.22 62.7113 154.119 63.067 153.92 63.3691C153.722 63.6712 153.435 63.9054 153.1 64.04C152.53 64.38 151.75 64.7 151.73 65.62C151.73 66.38 152.73 67.37 153.63 68.89C154.737 70.5216 155.368 72.4298 155.45 74.4C155.368 76.3998 154.696 78.3308 153.52 79.95C153.039 80.7384 152.379 81.4026 151.594 81.889C150.809 82.3754 149.92 82.6704 149 82.75C148.43 82.75 142.37 82 141.7 81.99C131.79 81.99 125.14 84.52 123.42 97.61L122.84 97.66C122.68 97.12 122.5 96.56 122.22 95.77L122.11 95.45L121.82 95.64C118.99 97.64 117.58 103.26 117.56 106.22C117.54 109.18 118.56 114.4 120.66 117.22L120.74 117.33H122L122.06 117.16C122.911 114.6 123.553 111.974 123.98 109.31C126.7 104.92 128.23 99.42 131.62 96.76C133.39 95.34 137.62 95.51 139.99 94.13C142.77 92.47 144.94 88.72 146.9 85.75C148.34 85.94 149.9 86.21 151.13 86.42V87.01C150.838 87.0569 150.572 87.2057 150.38 87.43C146.09 92.75 141.44 99.43 134.55 100.04H134.01L134.38 100.44C136.38 102.63 140.2 103.51 142.38 103.51C143.285 103.569 144.194 103.501 145.08 103.31Z" fill="#303030"/>
<path d="M196.54 110.22V87.4C196.54 80.3 195.41 73.16 185.45 67.93C180.66 65.45 165.05 49.88 165.12 42.78C165.12 40.78 166.41 40.45 167.7 40.41C169.43 40.41 172.51 41.76 175.09 43.69C177.67 45.62 179.78 48.12 179.76 50.24C179.765 50.2966 179.765 50.3534 179.76 50.41V51.06L180.24 50.61C181.67 49.28 182.63 47.23 184.31 45.91C185.99 44.59 189.1 44.22 190.81 41.91C193.73 37.91 195.57 31.8 197.3 27.08V27.02L196.94 23.02L196.43 22.95C194.43 28.8 190.09 37.95 183.21 38.6H183.07L183 38.75C182.34 40.11 179.66 43.67 178 43.6C175.79 43.65 173 40.6 169.73 37.41C166.46 34.22 162.39 31.06 157.34 31.06C154.62 31.06 151.07 32.39 151.01 35.06C151.07 41.26 160.27 48.96 169.4 58.06C178.53 67.16 187.64 77.39 187.63 88.27L186.63 103.27C186.841 107.274 187.543 111.237 188.72 115.07C189.625 117.033 190.688 118.92 191.9 120.71C193.55 123.18 195.23 125.54 196.54 125.63C197.25 125.56 197.54 124.8 197.73 124.13C197.886 123.632 197.99 123.119 198.04 122.6L196.54 110.22Z" fill="#303030"/>
<path d="M149.27 18.08C152.81 18.08 156.6 14.37 160.82 10.75C165.04 7.13 169.58 3.53001 174.38 3.54001C174.69 3.48001 175.93 4.54 177.03 5.72C178.13 6.9 179.24 7.99999 180.1 8.04999H187.21C191.21 7.96999 193.9 15.97 195.8 18L196.25 18.46V15.61C196.25 13.07 193.25 3.53999 192.71 2.67999C191.96 1.58999 189.55 1.03 186.94 0.589996C184.749 0.245482 182.537 0.0483761 180.32 0C164.52 0 153.17 11.61 148.9 11.54C148.37 11.54 144.7 10.54 143.9 10.54H141.8V10.83C142.24 17.42 145.61 18.14 149.27 18.08Z" fill="#303030"/>
<path d="M170.54 73.94L169.89 73.53L170.14 74.25C171.14 77.08 172.28 79.78 172.26 80.16C172.296 80.4397 172.233 80.7233 172.081 80.961C171.93 81.1987 171.699 81.3754 171.43 81.46C170.99 81.65 170.29 81.85 170.28 82.67C170.27 83.49 171.48 85.51 171.71 86.99C172.17 89.66 172.26 92.48 172.51 95.24L172.75 103C172.712 107.594 172.267 112.175 171.42 116.69C170.27 122.4 168.09 127.48 164.42 127.43H159.04C157.59 127.48 156.61 129.18 155.62 131.08C154.835 132.822 153.933 134.51 152.92 136.13L135 122.83L134.84 122.95C134.668 123.046 134.531 123.196 134.45 123.376C134.369 123.556 134.348 123.757 134.39 123.95C134.46 124.5 135.19 125.22 136.39 126.7C139.85 130.98 146.96 140.19 148.56 152.81V153.05H149.7C151.01 152.97 152.3 151.75 153.35 150.39C154.288 149.288 154.925 147.961 155.2 146.54C155.15 145.33 153.68 143.95 153.72 142.9C153.76 141.85 154.72 139.9 156.06 138.36C157.4 136.82 159.06 135.49 160.26 135.51C160.79 135.51 166.97 137.01 167.68 137.02C168.505 136.906 169.312 136.685 170.08 136.36C171.08 135.96 171.94 135.59 172.19 135C173.87 130.12 179.42 120.59 179.45 114.68L178.45 104.37C178.384 103.718 178.49 103.061 178.757 102.463C179.023 101.865 179.442 101.347 179.97 100.96C180.558 100.519 181.023 99.9339 181.321 99.2617C181.618 98.5894 181.739 97.852 181.67 97.12C181.68 91.38 177.62 78.47 170.54 73.94Z" fill="#303030"/>
<path d="M104.34 45.75C103.758 45.8944 103.167 45.9946 102.57 46.05C101.94 46.14 101.24 46.49 101.26 47.34C101.26 48.84 102.58 49.99 103.38 51.45C107.38 58.73 112.98 59.54 118.22 59.52C119.71 59.52 120.45 59.52 120.83 58.76C121.106 57.7005 121.267 56.6141 121.31 55.52C123.18 55.72 126.7 58.52 127.68 59.13C128.97 59.86 131.56 59.75 132.37 60.28C133.18 60.81 136.22 65.48 136.14 66.16C136.14 68.84 129.67 78.78 128.77 80.59V80.67V80.75C128.806 80.9309 128.908 81.0921 129.055 81.2028C129.203 81.3135 129.386 81.3659 129.57 81.35H129.62C130.497 81.0707 131.345 80.7056 132.15 80.26C136.25 78.26 144.15 74.05 146.2 71.41C147.2 70.01 147.31 67.07 147.33 66.41C147.296 64.0262 146.318 61.7533 144.61 60.09L144.39 59.9L144.23 60.13C143.64 60.94 143.23 61.69 142.41 63.13C139.1 55.23 124.49 49.78 118.98 49.74C118.275 49.7778 117.589 49.9835 116.98 50.34L116.84 50.41V51.55L116.91 51.63C117.79 52.51 118.59 53.52 118.56 53.9C118.56 54.72 118.09 54.72 117.56 54.76C116.731 54.3837 115.957 53.8958 115.26 53.31C114.26 52.5539 113.311 51.7321 112.42 50.85C112.649 50.6482 112.945 50.5409 113.25 50.55C113.661 50.571 114.068 50.645 114.46 50.77H114.57L114.67 50.71C114.877 50.6404 115.056 50.505 115.178 50.3244C115.301 50.1439 115.361 49.9281 115.35 49.71C115.28 48.34 112.49 45.54 109.52 42.81C108.03 41.46 106.52 40.19 105.27 39.25C104.502 38.5328 103.588 37.9904 102.59 37.66C102.369 37.632 102.145 37.6625 101.939 37.7485C101.734 37.8345 101.555 37.9729 101.42 38.15C101.26 38.4578 101.191 38.8045 101.22 39.15C101.22 40.22 102.14 41.45 103 42.62C103.698 43.3703 104.266 44.2322 104.68 45.17C104.71 45.48 104.61 45.57 104.34 45.75Z" fill="#303030"/>
<path d="M76.16 95.67L75.87 95.48L75.76 95.8C75.48 96.59 75.3 97.15 75.14 97.69L74.56 97.64C72.84 84.55 66.19 81.97 56.28 82.02C55.61 82.02 49.55 82.78 48.98 82.78C48.0614 82.6915 47.1765 82.3883 46.3966 81.895C45.6167 81.4017 44.9636 80.732 44.49 79.94C43.3135 78.3208 42.642 76.3898 42.56 74.39C42.6423 72.4198 43.2726 70.5116 44.38 68.88C45.29 67.36 46.23 66.37 46.27 65.61C46.27 64.69 45.48 64.37 44.91 64.03C44.5746 63.8953 44.2884 63.6612 44.0899 63.3591C43.8915 63.057 43.7903 62.7013 43.8 62.34C43.74 58.86 54.42 44.59 55.48 43.45C55.72 43.16 57.95 41.1 60.31 39.16C62.67 37.22 65.31 35.35 66.05 35.39C66.5 35.39 68.61 36.61 69.39 36.65C70.17 36.69 72.39 34.89 72.8 34.65H72.89L73.24 34.55L74.48 34.19C75.48 33.9 76.87 33.52 78.31 33.14C80.6007 32.4631 82.9413 31.9682 85.31 31.66C85.84 31.66 89.8 32.66 90.5 32.66C91.41 32.57 91.67 31.46 91.93 30.39C92.1092 29.5237 92.2162 28.644 92.25 27.76C92.25 26.98 90.99 24.6 91.01 24.12C90.989 23.7699 91.0394 23.4192 91.158 23.0892C91.2766 22.7592 91.461 22.4567 91.7 22.2C92.5308 21.2508 93.299 20.2487 94 19.2L93.65 18.82C91.59 20.02 89.41 21.54 87.65 22.76C86.5957 23.6039 85.4401 24.3127 84.21 24.87C83.0779 24.529 81.9978 24.0343 81 23.4C79.9305 22.7092 78.7598 22.1896 77.53 21.86C75 21.86 74.25 24.27 71.68 26.53C69.11 28.79 64.68 31.19 55.01 31.47H54.86L54.78 31.6C49.39 41.68 39.22 52.6 33.47 62.75C33.03 63.57 30.41 68.51 30.39 70.4C30.4114 70.7803 30.4924 71.1548 30.63 71.51V71.64L31.56 72.05H31.62C32.2432 71.9848 32.8441 71.7813 33.3787 71.4543C33.9132 71.1273 34.3681 70.6851 34.71 70.16C35.45 69.28 36.06 68.52 36.93 68.53C38.44 68.53 38.53 69.3 38.58 70.22C38.58 70.64 38.52 71.06 38.52 71.41C38.52 74.32 36.8 77.33 36.79 80.41C36.79 84.36 39.15 86.08 42.04 86.6V87.18C33.67 88.13 31.33 94.38 31.37 102.86C31.37 105.03 33.94 112.63 34.09 113.17C34.09 113.31 33.94 113.44 33.7 113.62C33.5327 113.708 33.3901 113.836 33.2853 113.994C33.1805 114.151 33.1168 114.332 33.1 114.52C33.1 116.87 35.53 120.45 38.44 123.52C41.35 126.59 44.74 129.15 46.97 129.18C48.51 129.18 50.37 126.95 52.16 124.38C53.7757 122.079 55.0929 119.583 56.08 116.95L56.18 116.61H55.83C52.7664 116.265 49.7931 115.356 47.06 113.93C43.78 112.28 41.06 109.93 41.06 107.36C41.06 106.78 41.8 101.77 41.8 101.08C41.8387 100.59 41.6816 100.104 41.363 99.729C41.0444 99.3541 40.5903 99.1208 40.1 99.08C39.23 98.9 38.23 98.96 37.64 98.81C37.24 98.68 37.11 98.6 37.1 98.27C37.1 95.54 38.35 95.19 41.32 91.27H42.32C43.24 91.97 45.54 93.42 47.66 94.98C49.78 96.54 51.76 98.36 51.66 99.17C51.66 99.68 51.18 100.56 51.17 101.3C51.1855 101.781 51.3657 102.242 51.6807 102.607C51.9956 102.971 52.4261 103.215 52.9 103.3C53.7942 103.532 54.7166 103.636 55.64 103.61C57.83 103.61 61.64 102.73 63.64 100.54L64.01 100.14H63.47C56.58 99.57 51.93 92.85 47.64 87.53C47.4495 87.3084 47.1879 87.1599 46.9 87.11V86.52C48.15 86.31 49.68 86.04 51.12 85.85C53.12 88.85 55.25 92.57 58.03 94.23C60.41 95.61 64.63 95.44 66.4 96.86C69.79 99.52 71.32 105.02 74.04 109.41C74.4668 112.074 75.1089 114.7 75.96 117.26L76.02 117.43H77.21L77.29 117.32C79.4 114.46 80.38 109.11 80.38 106.32C80.38 103.53 79 97.65 76.16 95.67Z" fill="#303030"/>
<path d="M28.63 58.1C37.76 49.03 46.96 41.33 47.02 35.1C46.96 32.4 43.41 31.1 40.69 31.1C35.64 31.1 31.64 34.3 28.3 37.45C24.96 40.6 22.24 43.69 20.03 43.64C18.36 43.71 15.68 40.15 15.03 38.79L14.96 38.66H14.82C7.94001 38.04 3.57001 28.86 1.60001 23.01L1.09 23.08L0.730011 27.08V27.14C2.46001 31.86 4.3 37.98 7.22 41.97C8.93 44.27 12.1 44.63 13.72 45.97C15.34 47.31 16.36 49.34 17.79 50.67L18.27 51.12V50.47C18.2652 50.4134 18.2652 50.3566 18.27 50.3C18.27 48.18 20.35 45.67 22.94 43.75C25.53 41.83 28.6 40.46 30.33 40.47C31.62 40.47 32.89 40.84 32.91 42.84C32.98 49.94 17.37 65.51 12.58 67.99C2.57999 73.22 1.46999 80.36 1.48999 87.46V110.28L0 122.67C0.0499025 123.189 0.153795 123.702 0.309998 124.2C0.549998 124.87 0.79 125.63 1.5 125.7C2.81 125.61 4.50001 123.25 6.14001 120.78C7.35166 118.99 8.41518 117.103 9.32001 115.14C10.4974 111.307 11.1994 107.344 11.41 103.34L10.41 88.34C10.39 77.43 19.48 67.13 28.63 58.1Z" fill="#303030"/>
<path d="M10.7899 8.04999H17.8999C18.7599 7.99999 19.7999 6.84 20.9699 5.72C22.1399 4.6 23.3099 3.48001 23.6199 3.54001C28.4099 3.54001 32.9899 7.11 37.1799 10.75C41.3699 14.39 45.1799 18.06 48.7299 18.08C52.2799 18.1 55.73 17.42 56.14 10.84V10.55H54.0399C53.2799 10.55 49.6099 11.55 49.0399 11.55C44.7699 11.62 33.4199 0.0100098 17.6199 0.0100098C15.4026 0.0583858 13.1909 0.255492 10.9999 0.600006C8.38994 1.04001 5.99995 1.6 5.22995 2.69C4.70995 3.55 1.70994 13.08 1.68994 15.62V18.47L2.13995 18.01C4.09995 15.97 6.76995 7.96999 10.7899 8.04999Z" fill="#303030"/>
<path d="M63.14 122.95L62.98 122.83L45.05 136.13C44.0332 134.512 43.131 132.824 42.35 131.08C41.35 129.18 40.35 127.48 38.93 127.43H33.55C29.91 127.48 27.73 122.43 26.55 116.69C25.7033 112.175 25.2583 107.594 25.22 103L25.46 95.24C25.71 92.48 25.8 89.66 26.26 86.99C26.49 85.51 27.66 83.47 27.69 82.67C27.72 81.87 26.98 81.67 26.54 81.46C26.2709 81.3754 26.0402 81.1987 25.8885 80.961C25.7367 80.7233 25.6735 80.4397 25.71 80.16C25.71 79.78 26.81 77.08 27.83 74.25L28.08 73.53L27.43 73.94C20.35 78.47 16.29 91.38 16.27 97.09C16.2014 97.822 16.3217 98.5594 16.6193 99.2316C16.9169 99.9039 17.382 100.489 17.97 100.93C18.4983 101.317 18.9165 101.835 19.1831 102.433C19.4497 103.031 19.5555 103.688 19.49 104.34L18.49 114.65C18.49 120.56 24.07 130.09 25.75 134.97C26 135.56 26.89 135.97 27.86 136.33C28.6275 136.655 29.4344 136.876 30.26 136.99C30.97 136.99 37.15 135.47 37.68 135.48C38.84 135.48 40.54 136.73 41.88 138.33C43.22 139.93 44.23 141.83 44.22 142.87C44.21 143.91 42.79 145.3 42.74 146.51C43.0146 147.931 43.6519 149.257 44.59 150.36C45.64 151.72 46.93 152.94 48.24 153.02H49.38V152.78C50.98 140.16 58.09 130.95 61.56 126.67C62.72 125.19 63.45 124.47 63.56 123.92C63.5982 123.735 63.5783 123.542 63.5032 123.369C63.428 123.195 63.3012 123.049 63.14 122.95V122.95Z" fill="#303030"/>
<path d="M88.44 42.75C85.44 45.48 82.68 48.28 82.61 49.65C82.5986 49.868 82.6589 50.0839 82.7817 50.2644C82.9045 50.445 83.083 50.5804 83.29 50.65L83.39 50.71H83.5C83.8922 50.585 84.2989 50.511 84.71 50.49C85.0147 50.4809 85.3115 50.5882 85.54 50.79C84.6489 51.672 83.7002 52.4938 82.7 53.25C82.0029 53.8358 81.2291 54.3236 80.4 54.7C79.89 54.7 79.45 54.7 79.4 53.84C79.4 53.46 80.16 52.45 81.04 51.57L81.11 51.49V50.35L80.97 50.28C80.3607 49.9235 79.675 49.7178 78.97 49.68C73.46 49.68 58.85 55.17 55.54 63.07C54.71 61.66 54.31 60.91 53.72 60.07L53.56 59.84L53.34 60.03C51.6321 61.6933 50.6538 63.9662 50.62 66.35C50.62 67.01 50.71 69.95 51.75 71.35C53.75 73.99 61.7 78.21 65.8 80.2C66.6054 80.6456 67.4529 81.0107 68.33 81.29H68.38C68.5638 81.3059 68.747 81.2535 68.8946 81.1428C69.0422 81.0321 69.1438 80.8709 69.18 80.69V80.61V80.53C68.28 78.72 61.77 68.78 61.81 66.1C61.73 65.42 64.81 60.66 65.58 60.22C66.35 59.78 68.98 59.8 70.27 59.07C71.27 58.49 74.77 55.66 76.64 55.46C76.6776 56.5546 76.8386 57.6415 77.12 58.7C77.5 59.42 78.24 59.46 79.73 59.46C84.97 59.46 90.54 58.67 94.57 51.39C95.37 49.93 96.67 48.78 96.69 47.28C96.69 46.43 96.01 46.08 95.38 45.99C94.7833 45.9346 94.1916 45.8343 93.61 45.69C93.34 45.56 93.24 45.47 93.23 45.15C93.6479 44.2144 94.2153 43.3532 94.91 42.6C95.78 41.43 96.68 40.2 96.69 39.13C96.7189 38.7845 96.6495 38.4378 96.49 38.13C96.355 37.9529 96.1759 37.8144 95.9706 37.7284C95.7652 37.6424 95.5409 37.612 95.32 37.64C94.3224 37.9704 93.4081 38.5128 92.64 39.23C91.45 40.16 89.93 41.43 88.44 42.75Z" fill="#303030"/>
<path d="M135.46 84.57C134.7 87.4 135.46 89.06 132.82 89.06C131.71 89.06 131.37 88.76 130.34 86.51C129.582 87.4474 128.881 88.4292 128.24 89.45C130.96 92.25 131.1 92.57 133.19 92.57C134.99 92.57 138.63 91.38 138.61 88.97V84.55C136.93 84.55 136.4 84.55 135.46 84.57Z" fill="#F9B122"/>
<path d="M62.54 84.57C63.31 87.4 62.54 89.06 65.18 89.06C66.29 89.06 66.63 88.76 67.66 86.51C68.4181 87.4449 69.1161 88.4268 69.75 89.45C67.04 92.25 66.9 92.57 64.81 92.57C63.01 92.57 59.37 91.38 59.39 88.97V84.55C61.07 84.55 61.6 84.55 62.54 84.57Z" fill="#F9B122"/>
<path d="M134.85 101.03C134.953 101.153 135.067 101.267 135.19 101.37C135.09 101.25 135 101.13 134.85 101.03Z" fill="#F9B122"/>
<path d="M150.33 87.5C150.522 87.2757 150.788 87.1269 151.08 87.08V86.49C149.82 86.28 148.29 86.01 146.85 85.82C144.85 88.82 142.72 92.54 139.94 94.2C137.56 95.58 133.34 95.41 131.57 96.83C129.57 98.41 128.2 100.99 126.86 103.74C128.934 101.947 131.423 100.7 134.1 100.11L134.32 100.06V100.12H134.48C141.39 99.54 146 92.82 150.33 87.5Z" fill="#F9B122"/>
<path d="M141.72 82.02C142.39 82.02 148.45 82.78 149.02 82.78C149.939 82.6915 150.823 82.3883 151.603 81.895C152.383 81.4017 153.036 80.732 153.51 79.94C154.686 78.3208 155.358 76.3898 155.44 74.39C155.358 72.4198 154.727 70.5116 153.62 68.88C152.71 67.36 151.77 66.37 151.72 65.61C151.738 65.3215 151.836 65.0438 152.004 64.8086C152.172 64.5734 152.403 64.3902 152.67 64.28C152.861 64.0982 153.09 63.9615 153.34 63.88C153.614 63.731 153.841 63.5072 153.993 63.2346C154.145 62.962 154.217 62.6518 154.2 62.34C154.2 60.92 152.45 57.69 150.28 54.34C150.04 54.11 149.84 53.92 149.69 53.8L149.42 53.69C147.96 53.09 132.88 46.21 129.02 46.23C128.705 46.1907 128.386 46.2202 128.084 46.3164C127.782 46.4126 127.505 46.5732 127.271 46.7871C127.037 47.001 126.852 47.2632 126.729 47.5555C126.607 47.8478 126.549 48.1632 126.56 48.48C126.973 49.6372 127.527 50.7388 128.21 51.76C128.238 51.8284 128.261 51.8986 128.28 51.97C134.09 54.29 140.28 58.2 142.34 63.02C143.17 61.61 143.57 60.86 144.16 60.02L144.32 59.79L144.54 59.98C146.248 61.6433 147.226 63.9162 147.26 66.3C147.26 66.96 147.17 69.9 146.13 71.3C144.13 73.94 136.18 78.16 132.08 80.15C131.275 80.5956 130.427 80.9607 129.55 81.24H129.5C129.331 81.2496 129.164 81.2041 129.023 81.1103C128.882 81.0165 128.776 80.8795 128.72 80.72C126.39 83.03 122.77 85.72 122.8 88.72C122.8 89.2 123.8 92.9 124 94.16C126.43 84.1 132.73 81.98 141.72 82.02Z" fill="#F9B122"/>
<path d="M153 136.13C154.013 134.51 154.915 132.822 155.7 131.08C156.7 129.18 157.7 127.48 159.12 127.43H164.5C168.14 127.48 170.32 122.43 171.5 116.69C172.347 112.175 172.792 107.594 172.83 103L172.59 95.24C172.36 92.65 172.25 90.02 171.86 87.5H171.65C168.77 87.68 167.73 89.42 167.22 91.68C166.71 93.94 166.9 96.61 166.58 98.38L166.51 98.77C166.663 100.134 166.734 101.507 166.72 102.88C166.72 105.05 164.15 112.65 164 113.19C164 113.33 164.15 113.46 164.39 113.64C164.557 113.728 164.7 113.856 164.805 114.014C164.91 114.171 164.973 114.352 164.99 114.54C164.99 116.89 162.56 120.47 159.65 123.54C157.776 125.651 155.533 127.403 153.03 128.71L153.09 128.77H152.8C152.268 128.998 151.699 129.131 151.12 129.16H151.03C150.221 129.394 149.395 129.565 148.56 129.67C145.72 129.67 142.56 128.07 139.56 126.03L153 136.13Z" fill="#F9B122"/>
<path d="M63.15 101.03C63.03 101.13 62.91 101.25 62.78 101.35C62.9107 101.252 63.0343 101.145 63.15 101.03Z" fill="#F9B122"/>
<path d="M66.4299 96.83C64.6599 95.41 60.4299 95.58 58.0599 94.2C55.2799 92.54 53.1099 88.79 51.1499 85.82C49.7099 86.01 48.1499 86.28 46.9299 86.49V87.08C47.2178 87.1299 47.4794 87.2784 47.67 87.5C51.96 92.82 56.6099 99.5 63.4999 100.11H63.6599V100.05L63.8799 100.1C66.5574 100.69 69.0457 101.937 71.1199 103.73C69.7999 100.99 68.4399 98.41 66.4299 96.83Z" fill="#F9B122"/>
<path d="M44.6599 63.88C44.9104 63.9615 45.1393 64.0982 45.3299 64.28C45.5966 64.3897 45.8267 64.573 45.9931 64.8085C46.1595 65.044 46.2556 65.322 46.2699 65.61C46.2699 66.37 45.2699 67.36 44.3799 68.88C43.2726 70.5116 42.6423 72.4198 42.5599 74.39C42.642 76.3898 43.3135 78.3208 44.4899 79.94C44.9689 80.729 45.6266 81.3944 46.41 81.8825C47.1934 82.3706 48.0806 82.6678 48.9999 82.75C49.5699 82.75 55.6299 82 56.2999 81.99C65.2999 81.99 71.5899 84.07 73.9699 94.22C74.1799 92.96 75.18 89.22 75.17 88.78C75.17 85.78 71.5799 83.06 69.2499 80.78C69.1939 80.9395 69.0875 81.0765 68.9468 81.1703C68.8061 81.264 68.6387 81.3096 68.4699 81.3H68.42C67.5428 81.0207 66.6954 80.6556 65.89 80.21C61.79 78.21 53.8899 74 51.8399 71.36C50.8399 69.96 50.7199 67.02 50.7099 66.36C50.7438 63.9762 51.722 61.7033 53.4299 60.04L53.6499 59.85L53.8099 60.08C54.3999 60.89 54.8099 61.64 55.6299 63.08C57.6299 58.26 63.8799 54.35 69.6799 52.03L69.7599 51.82C70.443 50.7988 70.9972 49.6971 71.4099 48.54C71.4211 48.2232 71.3633 47.9078 71.2406 47.6155C71.1179 47.3232 70.9332 47.061 70.6993 46.8471C70.4654 46.6332 70.1879 46.4726 69.8858 46.3764C69.5838 46.2802 69.2645 46.2507 68.95 46.29C65.09 46.29 50.0099 53.15 48.5499 53.75L48.2799 53.86C48.1299 53.98 47.9299 54.17 47.6899 54.4C45.5199 57.8 43.6899 61.03 43.7699 62.4C43.7671 62.7048 43.8488 63.0045 44.0059 63.2658C44.163 63.527 44.3894 63.7396 44.6599 63.88V63.88Z" fill="#F9B122"/>
<path d="M47.09 129.2H47C46.4213 129.171 45.8524 129.039 45.32 128.81H45.03L45.09 128.75C42.5875 127.443 40.3442 125.691 38.47 123.58C35.56 120.48 33.15 116.9 33.13 114.58C33.1468 114.392 33.2105 114.211 33.3153 114.054C33.4201 113.896 33.5627 113.768 33.73 113.68C33.97 113.5 34.11 113.37 34.12 113.23C33.97 112.69 31.41 105.09 31.4 102.92C31.3865 101.547 31.4566 100.174 31.61 98.81V98.81L31.54 98.42C31.22 96.65 31.39 93.98 30.9 91.72C30.41 89.46 29.35 87.72 26.47 87.54H26.26C25.87 90.06 25.76 92.69 25.53 95.28L25.29 103.04C25.3283 107.634 25.7733 112.215 26.62 116.73C27.77 122.44 29.95 127.52 33.62 127.47H39C40.45 127.52 41.43 129.22 42.42 131.12C43.201 132.864 44.1032 134.552 45.12 136.17L58.69 126.11C55.62 128.11 52.49 129.74 49.69 129.75C48.8097 129.638 47.94 129.455 47.09 129.2V129.2Z" fill="#F9B122"/>
</svg>
