<svg width="240" height="240" viewBox="0 0 240 240" fill="none" xmlns="http://www.w3.org/2000/svg">
<path d="M155.326 0V63.9C146.919 61.08 141.634 53.09 120.025 53.09C98.4161 53.09 93.1315 61.09 84.7242 63.9V0H0V28.21H7.05619C8.93026 28.21 10.7276 28.9538 12.0527 30.2778C13.3779 31.6018 14.1224 33.3976 14.1224 35.27L14.4026 148.92C14.4026 148.92 11.5001 239.15 119.735 239.84H120.315C228.55 239.15 225.647 148.92 225.647 148.92L225.928 35.27C225.928 33.3976 226.672 31.6018 227.997 30.2778C229.323 28.9538 231.12 28.21 232.994 28.21H240V0H155.326Z" fill="#F9B122"/>
<path d="M133.83 190.31C130.42 190.31 123.83 195.87 120.27 195.83C116.71 195.79 110.12 190.35 106.71 190.31C105.44 190.31 104.71 190.64 104.32 191.25C104.023 191.901 103.902 192.618 103.97 193.33C103.97 197.88 109.69 200.78 112.56 202.63C115.43 204.48 117.98 208.63 119.65 211.75L119.72 211.89H120.81L120.89 211.75C122.56 208.64 125.09 204.48 127.98 202.63C130.87 200.78 136.53 197.88 136.57 193.33C136.638 192.618 136.517 191.901 136.22 191.25C135.85 190.64 135.1 190.3 133.83 190.31Z" fill="#0053A1"/>
<path d="M166.35 145.37C166.824 145.285 167.254 145.041 167.569 144.676C167.884 144.312 168.065 143.851 168.08 143.37C168.08 142.63 167.57 141.75 167.59 141.24C167.53 140.43 169.46 138.62 171.59 137.05C173.72 135.48 176.01 134.05 176.93 133.34H177.93C180.93 137.28 182.16 137.63 182.15 140.34C182.15 140.67 182.01 140.75 181.61 140.88C181.02 141.03 180.02 140.97 179.15 141.15C178.66 141.191 178.206 141.424 177.887 141.799C177.568 142.174 177.411 142.66 177.45 143.15C177.45 143.84 178.2 148.85 178.19 149.43C178.19 152.01 175.46 154.35 172.19 156C169.457 157.426 166.484 158.335 163.42 158.68H163.07L163.17 159.02C164.157 161.652 165.474 164.149 167.09 166.45C168.88 169.02 170.74 171.2 172.28 171.25C174.51 171.25 177.88 168.67 180.81 165.59C183.74 162.51 186.13 158.91 186.15 156.59C186.133 156.402 186.07 156.221 185.965 156.064C185.86 155.906 185.717 155.778 185.55 155.69C185.31 155.51 185.17 155.38 185.16 155.24C185.31 154.7 187.88 147.1 187.88 144.93C187.88 136.45 185.58 130.2 177.21 129.25V128.67C180.1 128.15 182.48 126.43 182.46 122.48C182.46 119.37 180.72 116.36 180.73 113.48C180.73 113.13 180.67 112.71 180.67 112.29C180.72 111.37 180.81 110.64 182.32 110.6C183.19 110.6 183.8 111.35 184.54 112.23C184.882 112.755 185.337 113.197 185.871 113.524C186.406 113.851 187.007 114.055 187.63 114.12H187.69L188.62 113.71V113.58C188.762 113.226 188.846 112.851 188.87 112.47C188.87 110.58 186.22 105.64 185.78 104.82C180.03 94.71 169.86 83.75 164.47 73.67L164.39 73.54H164.27C154.56 73.26 150.17 70.89 147.6 68.6C145.03 66.31 144.28 63.97 141.75 63.93C140.521 64.2616 139.35 64.781 138.28 65.47C137.282 66.1043 136.202 66.5989 135.07 66.94C133.84 66.3827 132.684 65.6739 131.63 64.83C129.85 63.61 127.63 62.09 125.63 60.89L125.28 61.27C125.981 62.3187 126.749 63.3208 127.58 64.27C127.819 64.5266 128.003 64.8291 128.122 65.1592C128.241 65.4892 128.291 65.8399 128.27 66.19C128.27 66.67 127.06 69.05 127.03 69.83C127.058 70.7144 127.166 71.5945 127.35 72.46C127.61 73.53 127.87 74.64 128.78 74.73C129.48 74.73 133.44 73.73 133.97 73.73C136.339 74.0382 138.679 74.533 140.97 75.21C142.41 75.59 143.78 75.97 144.8 76.26L146.04 76.62L146.39 76.72H146.48C146.9 76.96 148.98 78.72 149.89 78.72C150.8 78.72 152.78 77.43 153.23 77.46C153.98 77.46 156.63 79.28 158.97 81.23C161.31 83.18 163.56 85.23 163.8 85.52C164.86 86.66 175.54 100.93 175.48 104.41C175.49 104.771 175.389 105.127 175.19 105.429C174.992 105.731 174.705 105.965 174.37 106.1C173.8 106.44 173.02 106.76 173 107.68C173 108.44 174 109.43 174.9 110.95C176.007 112.582 176.638 114.49 176.72 116.46C176.638 118.46 175.966 120.391 174.79 122.01C174.309 122.798 173.649 123.463 172.864 123.949C172.079 124.435 171.19 124.73 170.27 124.81C169.7 124.81 163.64 124.06 162.97 124.05C153.06 124.05 146.41 126.58 144.69 139.67L144.11 139.72C143.95 139.18 143.77 138.62 143.49 137.83L143.38 137.51L143.09 137.7C140.26 139.7 138.85 145.32 138.83 148.28C138.81 151.24 139.83 156.46 141.93 159.28L142.01 159.39H143.27L143.33 159.22C144.181 156.66 144.823 154.034 145.25 151.37C147.97 146.98 149.5 141.48 152.89 138.82C154.66 137.4 158.89 137.57 161.26 136.19C164.04 134.53 166.21 130.78 168.17 127.81C169.61 128 171.17 128.27 172.4 128.48V129.07C172.108 129.117 171.843 129.266 171.65 129.49C167.36 134.81 162.71 141.49 155.82 142.1H155.28L155.65 142.5C157.65 144.69 161.47 145.57 163.65 145.57C164.555 145.629 165.464 145.561 166.35 145.37Z" fill="#0053A1"/>
<path d="M217.81 152.28V129.46C217.81 122.36 216.68 115.22 206.72 109.99C201.93 107.51 186.32 91.94 186.39 84.84C186.39 82.84 187.68 82.51 188.97 82.47C190.7 82.47 193.78 83.82 196.36 85.75C198.94 87.68 201.05 90.18 201.03 92.3C201.035 92.3565 201.035 92.4134 201.03 92.47V93.12L201.51 92.67C202.94 91.34 203.9 89.29 205.58 87.97C207.26 86.65 210.37 86.28 212.08 83.97C215 79.97 216.84 73.86 218.57 69.14V69.08L218.21 65.08L217.7 65.01C215.7 70.86 211.36 80.01 204.48 80.66H204.34L204.27 80.81C203.61 82.17 200.93 85.73 199.27 85.66C197.06 85.71 194.27 82.66 191 79.47C187.73 76.28 183.66 73.12 178.61 73.12C175.89 73.12 172.34 74.45 172.28 77.12C172.34 83.32 181.54 91.02 190.67 100.12C199.8 109.22 208.91 119.45 208.9 130.33L207.9 145.33C208.111 149.334 208.813 153.297 209.99 157.13C210.895 159.093 211.958 160.98 213.17 162.77C214.82 165.24 216.5 167.6 217.81 167.69C218.52 167.62 218.81 166.86 219 166.19C219.156 165.692 219.26 165.179 219.31 164.66L217.81 152.28Z" fill="#0053A1"/>
<path d="M170.54 60.14C174.08 60.14 177.87 56.43 182.09 52.81C186.31 49.19 190.85 45.59 195.65 45.6C195.96 45.54 197.2 46.6 198.3 47.78C199.4 48.96 200.51 50.06 201.37 50.11H208.48C212.48 50.03 215.17 58.03 217.07 60.06L217.52 60.52V57.67C217.52 55.13 214.52 45.6 213.98 44.74C213.23 43.65 210.82 43.09 208.21 42.65C206.019 42.3055 203.807 42.1084 201.59 42.06C185.79 42.06 174.44 53.67 170.17 53.6C169.64 53.6 165.97 52.6 165.17 52.6H163.07V52.89C163.51 59.48 166.88 60.2 170.54 60.14Z" fill="#0053A1"/>
<path d="M191.81 116L191.16 115.59L191.41 116.31C192.41 119.14 193.55 121.84 193.53 122.22C193.567 122.5 193.503 122.783 193.352 123.021C193.2 123.259 192.969 123.435 192.7 123.52C192.26 123.71 191.56 123.91 191.55 124.73C191.54 125.55 192.75 127.57 192.98 129.05C193.44 131.72 193.53 134.54 193.78 137.3L194.02 145.06C193.982 149.654 193.537 154.235 192.69 158.75C191.54 164.46 189.36 169.54 185.69 169.49H180.31C178.86 169.54 177.88 171.24 176.89 173.14C176.105 174.882 175.203 176.57 174.19 178.19L156.27 164.89L156.11 165.01C155.938 165.106 155.801 165.256 155.72 165.436C155.639 165.616 155.618 165.817 155.66 166.01C155.73 166.56 156.46 167.28 157.66 168.76C161.12 173.04 168.23 182.25 169.83 194.87V195.11H170.97C172.28 195.03 173.57 193.81 174.62 192.45C175.558 191.348 176.195 190.021 176.47 188.6C176.42 187.39 174.95 186.01 174.99 184.96C175.03 183.91 175.99 181.96 177.33 180.42C178.67 178.88 180.33 177.55 181.53 177.57C182.06 177.57 188.24 179.07 188.95 179.08C189.776 178.966 190.582 178.744 191.35 178.42C192.35 178.02 193.21 177.65 193.46 177.06C195.14 172.18 200.69 162.65 200.72 156.74L199.72 146.43C199.655 145.778 199.76 145.121 200.027 144.523C200.293 143.925 200.712 143.407 201.24 143.02C201.828 142.579 202.293 141.994 202.591 141.322C202.888 140.649 203.009 139.912 202.94 139.18C202.95 133.44 198.89 120.53 191.81 116Z" fill="#0053A1"/>
<path d="M125.61 87.81C125.028 87.9543 124.437 88.0546 123.84 88.11C123.21 88.2 122.51 88.55 122.53 89.4C122.53 90.9 123.85 92.05 124.65 93.51C128.65 100.79 134.25 101.6 139.49 101.58C140.98 101.58 141.72 101.58 142.1 100.82C142.376 99.7605 142.537 98.6741 142.58 97.58C144.45 97.78 147.97 100.58 148.95 101.19C150.24 101.92 152.83 101.81 153.64 102.34C154.45 102.87 157.49 107.54 157.41 108.22C157.41 110.9 150.94 120.84 150.04 122.65V122.73V122.81C150.076 122.991 150.178 123.152 150.325 123.263C150.473 123.373 150.656 123.426 150.84 123.41H150.89C151.767 123.131 152.615 122.766 153.42 122.32C157.52 120.32 165.42 116.11 167.47 113.47C168.47 112.07 168.58 109.13 168.6 108.47C168.566 106.086 167.588 103.813 165.88 102.15L165.66 101.96L165.5 102.19C164.91 103 164.5 103.75 163.68 105.19C160.37 97.29 145.76 91.84 140.25 91.8C139.545 91.8378 138.859 92.0435 138.25 92.4L138.11 92.47V93.61L138.18 93.69C139.06 94.57 139.86 95.58 139.83 95.96C139.83 96.78 139.36 96.78 138.83 96.82C138.001 96.4436 137.227 95.9558 136.53 95.37C135.53 94.6139 134.581 93.7921 133.69 92.91C133.919 92.7082 134.215 92.6009 134.52 92.61C134.931 92.631 135.338 92.705 135.73 92.83H135.84L135.94 92.77C136.147 92.7004 136.325 92.565 136.448 92.3844C136.571 92.2039 136.631 91.9881 136.62 91.77C136.55 90.4 133.76 87.6 130.79 84.87C129.3 83.52 127.79 82.25 126.54 81.31C125.772 80.5928 124.858 80.0504 123.86 79.72C123.639 79.692 123.415 79.7225 123.209 79.8085C123.004 79.8945 122.825 80.0329 122.69 80.21C122.53 80.5178 122.461 80.8645 122.49 81.21C122.49 82.28 123.41 83.51 124.27 84.68C124.968 85.4302 125.536 86.2922 125.95 87.23C125.98 87.54 125.88 87.63 125.61 87.81Z" fill="#0053A1"/>
<path d="M97.43 137.73L97.14 137.54L97.03 137.86C96.75 138.65 96.57 139.21 96.41 139.75L95.83 139.7C94.11 126.61 87.46 124.03 77.55 124.08C76.88 124.08 70.82 124.84 70.25 124.84C69.3314 124.751 68.4465 124.448 67.6666 123.955C66.8867 123.462 66.2336 122.792 65.76 122C64.5835 120.381 63.912 118.45 63.83 116.45C63.9123 114.48 64.5426 112.572 65.65 110.94C66.56 109.42 67.5 108.43 67.54 107.67C67.54 106.75 66.75 106.43 66.18 106.09C65.8445 105.955 65.5584 105.721 65.3599 105.419C65.1615 105.117 65.0603 104.761 65.07 104.4C65.01 100.92 75.69 86.65 76.75 85.51C76.99 85.22 79.22 83.16 81.58 81.22C83.94 79.28 86.58 77.41 87.32 77.45C87.77 77.45 89.88 78.67 90.66 78.71C91.44 78.75 93.66 76.95 94.07 76.71H94.16L94.51 76.61L95.75 76.25C96.75 75.96 98.14 75.58 99.58 75.2C101.871 74.523 104.211 74.0282 106.58 73.72C107.11 73.72 111.07 74.72 111.77 74.72C112.68 74.63 112.94 73.52 113.2 72.45C113.379 71.5837 113.486 70.704 113.52 69.82C113.52 69.04 112.26 66.66 112.28 66.18C112.259 65.8299 112.309 65.4792 112.428 65.1492C112.547 64.8191 112.731 64.5166 112.97 64.26C113.801 63.3108 114.569 62.3087 115.27 61.26L114.92 60.88C112.86 62.08 110.68 63.6 108.92 64.82C107.866 65.6639 106.71 66.3727 105.48 66.93C104.348 66.5889 103.268 66.0943 102.27 65.46C101.201 64.7692 100.03 64.2496 98.8 63.92C96.27 63.92 95.52 66.33 92.95 68.59C90.38 70.85 85.95 73.25 76.28 73.53H76.13L76.05 73.66C70.66 83.74 60.49 94.66 54.74 104.81C54.3 105.63 51.68 110.57 51.66 112.46C51.6814 112.84 51.7624 113.215 51.9 113.57V113.7L52.83 114.11H52.89C53.5132 114.045 54.1141 113.841 54.6487 113.514C55.1832 113.187 55.6381 112.745 55.98 112.22C56.72 111.34 57.33 110.58 58.2 110.59C59.71 110.59 59.8 111.36 59.85 112.28C59.85 112.7 59.79 113.12 59.79 113.47C59.79 116.38 58.07 119.39 58.06 122.47C58.06 126.42 60.42 128.14 63.31 128.66V129.24C54.94 130.19 52.6 136.44 52.64 144.92C52.64 147.09 55.21 154.69 55.36 155.23C55.36 155.37 55.21 155.5 54.97 155.68C54.8027 155.768 54.6601 155.896 54.5553 156.054C54.4505 156.211 54.3868 156.392 54.37 156.58C54.37 158.93 56.8 162.51 59.71 165.58C62.62 168.65 66.01 171.21 68.24 171.24C69.78 171.24 71.64 169.01 73.43 166.44C75.0457 164.139 76.3629 161.643 77.35 159.01L77.45 158.67H77.1C74.0364 158.325 71.0631 157.416 68.33 155.99C65.05 154.34 62.33 151.99 62.33 149.42C62.33 148.84 63.07 143.83 63.07 143.14C63.1087 142.65 62.9516 142.164 62.633 141.789C62.3144 141.414 61.8602 141.181 61.37 141.14C60.5 140.96 59.5 141.02 58.91 140.87C58.51 140.74 58.38 140.66 58.37 140.33C58.37 137.6 59.62 137.25 62.59 133.33H63.59C64.51 134.03 66.81 135.48 68.93 137.04C71.05 138.6 73.03 140.42 72.93 141.23C72.93 141.74 72.45 142.62 72.44 143.36C72.4554 143.841 72.6357 144.302 72.9507 144.666C73.2656 145.031 73.6961 145.275 74.17 145.36C75.0641 145.592 75.9866 145.696 76.91 145.67C79.1 145.67 82.91 144.79 84.91 142.6L85.28 142.2H84.74C77.85 141.63 73.2 134.91 68.91 129.59C68.7195 129.368 68.4579 129.22 68.17 129.17V128.58C69.42 128.37 70.95 128.1 72.39 127.91C74.39 130.91 76.52 134.63 79.3 136.29C81.68 137.67 85.9 137.5 87.67 138.92C91.06 141.58 92.59 147.08 95.31 151.47C95.7368 154.134 96.3789 156.76 97.23 159.32L97.29 159.49H98.48L98.56 159.38C100.67 156.52 101.65 151.17 101.65 148.38C101.65 145.59 100.27 139.71 97.43 137.73Z" fill="#0053A1"/>
<path d="M49.9 100.16C59.03 91.09 68.23 83.39 68.29 77.16C68.23 74.46 64.68 73.16 61.96 73.16C56.91 73.16 52.91 76.36 49.57 79.51C46.23 82.66 43.51 85.75 41.3 85.7C39.63 85.77 36.95 82.21 36.3 80.85L36.23 80.72H36.09C29.21 80.1 24.84 70.92 22.87 65.07L22.36 65.14L22 69.14V69.2C23.73 73.92 25.57 80.04 28.49 84.03C30.2 86.33 33.37 86.69 34.99 88.03C36.61 89.37 37.63 91.4 39.06 92.73L39.54 93.18V92.53C39.5352 92.4734 39.5352 92.4165 39.54 92.36C39.54 90.24 41.62 87.73 44.21 85.81C46.8 83.89 49.87 82.52 51.6 82.53C52.89 82.53 54.16 82.9 54.18 84.9C54.25 92 38.64 107.57 33.85 110.05C23.85 115.28 22.74 122.42 22.76 129.52V152.34L21.27 164.73C21.3199 165.249 21.4238 165.762 21.58 166.26C21.82 166.93 22.06 167.69 22.77 167.76C24.08 167.67 25.77 165.31 27.41 162.84C28.6216 161.05 29.6852 159.163 30.59 157.2C31.7674 153.367 32.4693 149.404 32.68 145.4L31.68 130.4C31.66 119.49 40.75 109.19 49.9 100.16Z" fill="#0053A1"/>
<path d="M32.06 50.11H39.17C40.03 50.06 41.07 48.9 42.24 47.78C43.41 46.66 44.58 45.54 44.89 45.6C49.68 45.6 54.26 49.17 58.45 52.81C62.64 56.45 66.45 60.12 70 60.14C73.55 60.16 77 59.48 77.41 52.9V52.61H75.31C74.55 52.61 70.88 53.61 70.31 53.61C66.04 53.68 54.69 42.07 38.89 42.07C36.6726 42.1184 34.461 42.3155 32.27 42.66C29.66 43.1 27.27 43.66 26.5 44.75C25.98 45.61 22.98 55.14 22.96 57.68V60.53L23.41 60.07C25.37 58.03 28.04 50.03 32.06 50.11Z" fill="#0053A1"/>
<path d="M84.41 165.01L84.25 164.89L66.32 178.19C65.3032 176.572 64.401 174.884 63.62 173.14C62.62 171.24 61.62 169.54 60.2 169.49H54.82C51.18 169.54 49 164.49 47.82 158.75C46.9733 154.235 46.5283 149.654 46.49 145.06L46.73 137.3C46.98 134.54 47.07 131.72 47.53 129.05C47.76 127.57 48.93 125.53 48.96 124.73C48.99 123.93 48.25 123.73 47.81 123.52C47.5409 123.435 47.3103 123.259 47.1585 123.021C47.0067 122.783 46.9435 122.5 46.98 122.22C46.98 121.84 48.08 119.14 49.1 116.31L49.35 115.59L48.7 116C41.62 120.53 37.56 133.44 37.54 139.15C37.4714 139.882 37.5917 140.619 37.8893 141.292C38.187 141.964 38.652 142.549 39.24 142.99C39.7683 143.377 40.1865 143.895 40.4531 144.493C40.7197 145.091 40.8255 145.748 40.76 146.4L39.76 156.71C39.76 162.62 45.34 172.15 47.02 177.03C47.27 177.62 48.16 178.03 49.13 178.39C49.8975 178.714 50.7045 178.936 51.53 179.05C52.24 179.05 58.42 177.53 58.95 177.54C60.11 177.54 61.81 178.79 63.15 180.39C64.49 181.99 65.5 183.89 65.49 184.93C65.48 185.97 64.06 187.36 64.01 188.57C64.2846 189.991 64.9219 191.317 65.86 192.42C66.91 193.78 68.2 195 69.51 195.08H70.65V194.84C72.25 182.22 79.36 173.01 82.83 168.73C83.99 167.25 84.72 166.53 84.83 165.98C84.8682 165.795 84.8483 165.602 84.7732 165.429C84.698 165.255 84.5712 165.109 84.41 165.01V165.01Z" fill="#0053A1"/>
<path d="M109.71 84.81C106.71 87.54 103.95 90.34 103.88 91.71C103.869 91.928 103.929 92.1438 104.052 92.3244C104.174 92.505 104.353 92.6404 104.56 92.71L104.66 92.77H104.77C105.162 92.6449 105.569 92.571 105.98 92.55C106.285 92.5409 106.581 92.6482 106.81 92.85C105.919 93.732 104.97 94.5538 103.97 95.31C103.273 95.8958 102.499 96.3836 101.67 96.76C101.16 96.76 100.72 96.76 100.67 95.9C100.67 95.52 101.43 94.51 102.31 93.63L102.38 93.55V92.41L102.24 92.34C101.631 91.9835 100.945 91.7777 100.24 91.74C94.73 91.74 80.12 97.23 76.81 105.13C75.98 103.72 75.58 102.97 74.99 102.13L74.83 101.9L74.61 102.09C72.9021 103.753 71.9238 106.026 71.89 108.41C71.89 109.07 71.98 112.01 73.02 113.41C75.02 116.05 82.97 120.27 87.07 122.26C87.8754 122.706 88.7229 123.071 89.6 123.35H89.65C89.8338 123.366 90.017 123.313 90.1646 123.203C90.3122 123.092 90.4138 122.931 90.45 122.75V122.67V122.59C89.55 120.78 83.04 110.84 83.08 108.16C83 107.48 86.08 102.72 86.85 102.28C87.62 101.84 90.25 101.86 91.54 101.13C92.54 100.55 96.04 97.72 97.91 97.52C97.9475 98.6146 98.1085 99.7015 98.39 100.76C98.77 101.48 99.51 101.52 101 101.52C106.24 101.52 111.81 100.73 115.84 93.45C116.64 91.99 117.94 90.84 117.96 89.34C117.96 88.49 117.28 88.14 116.65 88.05C116.053 87.9946 115.462 87.8943 114.88 87.75C114.61 87.62 114.51 87.53 114.5 87.21C114.918 86.2744 115.485 85.4132 116.18 84.66C117.05 83.49 117.95 82.26 117.96 81.19C117.989 80.8445 117.92 80.4978 117.76 80.19C117.625 80.0129 117.446 79.8744 117.241 79.7884C117.035 79.7024 116.811 79.6719 116.59 79.7C115.592 80.0303 114.678 80.5728 113.91 81.29C112.72 82.22 111.2 83.49 109.71 84.81Z" fill="#0053A1"/>
<path d="M156.73 126.63C155.97 129.46 156.73 131.12 154.09 131.12C152.98 131.12 152.64 130.82 151.61 128.57C150.852 129.507 150.151 130.489 149.51 131.51C152.23 134.31 152.37 134.63 154.46 134.63C156.26 134.63 159.9 133.44 159.88 131.03V126.61C158.2 126.61 157.67 126.61 156.73 126.63Z" fill="#F9B122"/>
<path d="M83.81 126.63C84.58 129.46 83.81 131.12 86.45 131.12C87.56 131.12 87.9 130.82 88.93 128.57C89.6881 129.505 90.3861 130.487 91.02 131.51C88.31 134.31 88.17 134.63 86.08 134.63C84.28 134.63 80.64 133.44 80.66 131.03V126.61C82.34 126.61 82.87 126.61 83.81 126.63Z" fill="#F9B122"/>
<path d="M156.12 143.09C156.223 143.213 156.337 143.327 156.46 143.43C156.36 143.31 156.27 143.19 156.12 143.09Z" fill="#F9B122"/>
<path d="M171.6 129.56C171.792 129.336 172.058 129.187 172.35 129.14V128.55C171.09 128.34 169.56 128.07 168.12 127.88C166.12 130.88 163.99 134.6 161.21 136.26C158.83 137.64 154.61 137.47 152.84 138.89C150.84 140.47 149.47 143.05 148.13 145.8C150.204 144.007 152.693 142.76 155.37 142.17L155.59 142.12V142.18H155.75C162.66 141.6 167.27 134.88 171.6 129.56Z" fill="#F9B122"/>
<path d="M162.99 124.08C163.66 124.08 169.72 124.84 170.29 124.84C171.209 124.751 172.094 124.448 172.873 123.955C173.653 123.462 174.306 122.792 174.78 122C175.957 120.381 176.628 118.45 176.71 116.45C176.628 114.48 175.997 112.572 174.89 110.94C173.98 109.42 173.04 108.43 172.99 107.67C173.008 107.381 173.106 107.104 173.274 106.869C173.442 106.633 173.673 106.45 173.94 106.34C174.131 106.158 174.36 106.022 174.61 105.94C174.884 105.791 175.111 105.567 175.263 105.295C175.415 105.022 175.487 104.712 175.47 104.4C175.47 102.98 173.72 99.75 171.55 96.4C171.31 96.17 171.11 95.98 170.96 95.86L170.69 95.75C169.23 95.15 154.15 88.27 150.29 88.29C149.975 88.2507 149.656 88.2802 149.354 88.3764C149.052 88.4726 148.775 88.6332 148.541 88.8471C148.307 89.061 148.122 89.3232 147.999 89.6155C147.877 89.9078 147.819 90.2232 147.83 90.54C148.243 91.6971 148.797 92.7988 149.48 93.82C149.508 93.8884 149.531 93.9586 149.55 94.03C155.36 96.35 161.55 100.26 163.61 105.08C164.44 103.67 164.84 102.92 165.43 102.08L165.59 101.85L165.81 102.04C167.518 103.703 168.496 105.976 168.53 108.36C168.53 109.02 168.44 111.96 167.4 113.36C165.4 116 157.45 120.22 153.35 122.21C152.545 122.656 151.697 123.021 150.82 123.3H150.77C150.601 123.31 150.434 123.264 150.293 123.17C150.153 123.076 150.046 122.939 149.99 122.78C147.66 125.09 144.04 127.78 144.07 130.78C144.07 131.26 145.07 134.96 145.27 136.22C147.7 126.16 154 124.04 162.99 124.08Z" fill="#F9F5F4"/>
<path d="M174.27 178.19C175.283 176.57 176.185 174.882 176.97 173.14C177.97 171.24 178.97 169.54 180.39 169.49H185.77C189.41 169.54 191.59 164.49 192.77 158.75C193.617 154.235 194.062 149.654 194.1 145.06L193.86 137.3C193.63 134.71 193.52 132.08 193.13 129.56H192.92C190.04 129.74 189 131.48 188.49 133.74C187.98 136 188.17 138.67 187.85 140.44L187.78 140.83C187.933 142.194 188.003 143.567 187.99 144.94C187.99 147.11 185.42 154.71 185.27 155.25C185.27 155.39 185.42 155.52 185.66 155.7C185.827 155.788 185.97 155.916 186.075 156.074C186.18 156.231 186.243 156.412 186.26 156.6C186.26 158.95 183.83 162.53 180.92 165.6C179.046 167.711 176.803 169.463 174.3 170.77L174.36 170.83H174.07C173.538 171.058 172.969 171.191 172.39 171.22H172.3C171.491 171.454 170.665 171.625 169.83 171.73C166.99 171.73 163.83 170.13 160.83 168.09L174.27 178.19Z" fill="#F9F5F4"/>
<path d="M84.42 143.09C84.3 143.19 84.18 143.31 84.05 143.41C84.1806 143.312 84.3042 143.205 84.42 143.09Z" fill="#F9B122"/>
<path d="M87.7 138.89C85.93 137.47 81.7 137.64 79.33 136.26C76.55 134.6 74.38 130.85 72.42 127.88C70.98 128.07 69.42 128.34 68.2 128.55V129.14C68.4879 129.19 68.7495 129.338 68.94 129.56C73.23 134.88 77.88 141.56 84.77 142.17H84.93V142.11L85.15 142.16C87.8274 142.75 90.3157 143.997 92.39 145.79C91.07 143.05 89.71 140.47 87.7 138.89Z" fill="#F9B122"/>
<path d="M65.93 105.94C66.1804 106.022 66.4094 106.158 66.6 106.34C66.8667 106.45 67.0967 106.633 67.2632 106.868C67.4296 107.104 67.5256 107.382 67.54 107.67C67.54 108.43 66.54 109.42 65.65 110.94C64.5426 112.572 63.9123 114.48 63.83 116.45C63.912 118.45 64.5835 120.381 65.76 122C66.239 122.789 66.8967 123.454 67.6801 123.942C68.4635 124.431 69.3506 124.728 70.27 124.81C70.84 124.81 76.9 124.06 77.57 124.05C86.57 124.05 92.86 126.13 95.24 136.28C95.45 135.02 96.45 131.28 96.44 130.84C96.44 127.84 92.85 125.12 90.52 122.84C90.4639 122.999 90.3575 123.136 90.2168 123.23C90.0761 123.324 89.9088 123.37 89.74 123.36H89.69C88.8129 123.081 87.9655 122.716 87.16 122.27C83.06 120.27 75.16 116.06 73.11 113.42C72.11 112.02 71.99 109.08 71.98 108.42C72.0138 106.036 72.992 103.763 74.7 102.1L74.92 101.91L75.08 102.14C75.67 102.95 76.08 103.7 76.9 105.14C78.9 100.32 85.15 96.41 90.95 94.09L91.03 93.88C91.713 92.8588 92.2672 91.7571 92.68 90.6C92.6911 90.2832 92.6333 89.9678 92.5107 89.6755C92.388 89.3832 92.2033 89.121 91.9694 88.9071C91.7355 88.6932 91.4579 88.5325 91.1559 88.4364C90.8538 88.3402 90.5345 88.3107 90.22 88.35C86.36 88.35 71.28 95.21 69.82 95.81L69.55 95.92C69.4 96.04 69.2 96.23 68.96 96.46C66.79 99.86 64.96 103.09 65.04 104.46C65.0371 104.765 65.1188 105.064 65.2759 105.326C65.433 105.587 65.6594 105.8 65.93 105.94V105.94Z" fill="#F9F5F4"/>
<path d="M68.36 171.26H68.27C67.6913 171.231 67.1225 171.098 66.59 170.87H66.3L66.36 170.81C63.8575 169.503 61.6142 167.751 59.74 165.64C56.83 162.54 54.42 158.96 54.4 156.64C54.4168 156.452 54.4805 156.271 54.5853 156.114C54.6901 155.956 54.8327 155.828 55 155.74C55.24 155.56 55.38 155.43 55.39 155.29C55.24 154.75 52.68 147.15 52.67 144.98C52.6565 143.607 52.7266 142.234 52.88 140.87V140.87L52.81 140.48C52.49 138.71 52.66 136.04 52.17 133.78C51.68 131.52 50.62 129.78 47.74 129.6H47.53C47.14 132.12 47.03 134.75 46.8 137.34L46.56 145.1C46.5983 149.694 47.0433 154.275 47.89 158.79C49.04 164.5 51.22 169.58 54.89 169.53H60.27C61.72 169.58 62.7 171.28 63.69 173.18C64.471 174.924 65.3732 176.612 66.39 178.23L79.96 168.17C76.89 170.17 73.76 171.8 70.96 171.81C70.0797 171.698 69.2101 171.514 68.36 171.26V171.26Z" fill="#F9F5F4"/>
</svg>
