<svg width="251" height="435" viewBox="0 0 251 435" fill="none" xmlns="http://www.w3.org/2000/svg">
<path d="M245.65 0H5.35002H0V6.15321V428.835V435H5.35002H245.65H251V428.835V6.15321V0H245.65Z" fill="#F9B122"/>
<path d="M245 6H5V429H245V6Z" fill="#303030"/>
<path d="M160.326 75.89V139.79C151.919 136.97 146.634 128.98 125.025 128.98C103.416 128.98 98.1315 136.98 89.7242 139.79V75.89H5V104.1H12.0562C13.9303 104.1 15.7276 104.844 17.0527 106.168C18.3779 107.492 19.1224 109.288 19.1224 111.16L19.4026 224.81C19.4026 224.81 16.5001 315.04 124.735 315.73H125.315C233.55 315.04 230.647 224.81 230.647 224.81L230.928 111.16C230.928 109.288 231.672 107.492 232.997 106.168C234.323 104.844 236.12 104.1 237.994 104.1H245V75.89H160.326Z" fill="#F9B122"/>
<path d="M138.83 266.2C135.42 266.2 128.83 271.76 125.27 271.72C121.71 271.68 115.12 266.24 111.71 266.2C110.44 266.2 109.71 266.53 109.32 267.14C109.023 267.791 108.902 268.508 108.97 269.22C108.97 273.77 114.69 276.67 117.56 278.52C120.43 280.37 122.98 284.52 124.65 287.64L124.72 287.78H125.81L125.89 287.64C127.56 284.53 130.09 280.37 132.98 278.52C135.87 276.67 141.53 273.77 141.57 269.22C141.638 268.508 141.517 267.791 141.22 267.14C140.85 266.53 140.1 266.19 138.83 266.2Z" fill="#303030"/>
<path d="M171.35 221.26C171.824 221.175 172.254 220.931 172.569 220.567C172.884 220.202 173.065 219.741 173.08 219.26C173.08 218.52 172.57 217.64 172.59 217.13C172.53 216.32 174.46 214.51 176.59 212.94C178.72 211.37 181.01 209.94 181.93 209.23H182.93C185.93 213.17 187.16 213.52 187.15 216.23C187.15 216.56 187.01 216.64 186.61 216.77C186.02 216.92 185.02 216.86 184.15 217.04C183.66 217.081 183.206 217.314 182.887 217.689C182.568 218.064 182.411 218.55 182.45 219.04C182.45 219.73 183.2 224.74 183.19 225.32C183.19 227.9 180.46 230.24 177.19 231.89C174.457 233.316 171.484 234.225 168.42 234.57H168.07L168.17 234.91C169.157 237.543 170.474 240.039 172.09 242.34C173.88 244.91 175.74 247.09 177.28 247.14C179.51 247.14 182.88 244.56 185.81 241.48C188.74 238.4 191.13 234.8 191.15 232.48C191.133 232.292 191.069 232.111 190.965 231.954C190.86 231.796 190.717 231.668 190.55 231.58C190.31 231.4 190.17 231.27 190.16 231.13C190.31 230.59 192.88 222.99 192.88 220.82C192.88 212.34 190.58 206.09 182.21 205.14V204.56C185.1 204.04 187.48 202.32 187.46 198.37C187.46 195.26 185.72 192.25 185.73 189.37C185.73 189.02 185.67 188.6 185.67 188.18C185.72 187.26 185.81 186.53 187.32 186.49C188.19 186.49 188.8 187.24 189.54 188.12C189.882 188.645 190.337 189.087 190.871 189.414C191.406 189.741 192.007 189.945 192.63 190.01H192.69L193.62 189.6V189.47C193.762 189.116 193.846 188.741 193.87 188.36C193.87 186.47 191.22 181.53 190.78 180.71C185.03 170.6 174.86 159.64 169.47 149.56L169.39 149.43H169.27C159.56 149.15 155.17 146.78 152.6 144.49C150.03 142.2 149.28 139.86 146.75 139.82C145.521 140.152 144.35 140.671 143.28 141.36C142.282 141.994 141.202 142.489 140.07 142.83C138.84 142.273 137.684 141.564 136.63 140.72C134.85 139.5 132.63 137.98 130.63 136.78L130.28 137.16C130.981 138.209 131.749 139.211 132.58 140.16C132.819 140.417 133.003 140.719 133.122 141.049C133.241 141.379 133.291 141.73 133.27 142.08C133.27 142.56 132.06 144.94 132.03 145.72C132.058 146.604 132.165 147.485 132.35 148.35C132.61 149.42 132.87 150.53 133.78 150.62C134.48 150.62 138.44 149.62 138.97 149.62C141.339 149.928 143.679 150.423 145.97 151.1C147.41 151.48 148.78 151.86 149.8 152.15L151.04 152.51L151.39 152.61H151.48C151.9 152.85 153.98 154.61 154.89 154.61C155.8 154.61 157.78 153.32 158.23 153.35C158.98 153.35 161.63 155.17 163.97 157.12C166.31 159.07 168.56 161.12 168.8 161.41C169.86 162.55 180.54 176.82 180.48 180.3C180.49 180.661 180.389 181.017 180.19 181.319C179.992 181.621 179.705 181.855 179.37 181.99C178.8 182.33 178.02 182.65 178 183.57C178 184.33 179 185.32 179.9 186.84C181.007 188.472 181.638 190.38 181.72 192.35C181.638 194.35 180.966 196.281 179.79 197.9C179.309 198.688 178.649 199.353 177.864 199.839C177.079 200.325 176.19 200.62 175.27 200.7C174.7 200.7 168.64 199.95 167.97 199.94C158.06 199.94 151.41 202.47 149.69 215.56L149.11 215.61C148.95 215.07 148.77 214.51 148.49 213.72L148.38 213.4L148.09 213.59C145.26 215.59 143.85 221.21 143.83 224.17C143.81 227.13 144.83 232.35 146.93 235.17L147.01 235.28H148.27L148.33 235.11C149.181 232.55 149.823 229.924 150.25 227.26C152.97 222.87 154.5 217.37 157.89 214.71C159.66 213.29 163.89 213.46 166.26 212.08C169.04 210.42 171.21 206.67 173.17 203.7C174.61 203.89 176.17 204.16 177.4 204.37V204.96C177.108 205.007 176.842 205.156 176.65 205.38C172.36 210.7 167.71 217.38 160.82 217.99H160.28L160.65 218.39C162.65 220.58 166.47 221.46 168.65 221.46C169.555 221.519 170.464 221.451 171.35 221.26Z" fill="#303030"/>
<path d="M222.81 228.17V205.35C222.81 198.25 221.68 191.11 211.72 185.88C206.93 183.4 191.32 167.83 191.39 160.73C191.39 158.73 192.68 158.4 193.97 158.36C195.7 158.36 198.78 159.71 201.36 161.64C203.94 163.57 206.05 166.07 206.03 168.19C206.035 168.247 206.035 168.303 206.03 168.36V169.01L206.51 168.56C207.94 167.23 208.9 165.18 210.58 163.86C212.26 162.54 215.37 162.17 217.08 159.86C220 155.86 221.84 149.75 223.57 145.03V144.97L223.21 140.97L222.7 140.9C220.7 146.75 216.36 155.9 209.48 156.55H209.34L209.27 156.7C208.61 158.06 205.93 161.62 204.27 161.55C202.06 161.6 199.27 158.55 196 155.36C192.73 152.17 188.66 149.01 183.61 149.01C180.89 149.01 177.34 150.34 177.28 153.01C177.34 159.21 186.54 166.91 195.67 176.01C204.8 185.11 213.91 195.34 213.9 206.22L212.9 221.22C213.111 225.224 213.813 229.187 214.99 233.02C215.895 234.983 216.958 236.87 218.17 238.66C219.82 241.13 221.5 243.49 222.81 243.58C223.52 243.51 223.81 242.75 224 242.08C224.156 241.582 224.26 241.069 224.31 240.55L222.81 228.17Z" fill="#303030"/>
<path d="M175.54 136.03C179.08 136.03 182.87 132.32 187.09 128.7C191.31 125.08 195.85 121.48 200.65 121.49C200.96 121.43 202.2 122.49 203.3 123.67C204.4 124.85 205.51 125.95 206.37 126H213.48C217.48 125.92 220.17 133.92 222.07 135.95L222.52 136.41V133.56C222.52 131.02 219.52 121.49 218.98 120.63C218.23 119.54 215.82 118.98 213.21 118.54C211.019 118.195 208.807 117.998 206.59 117.95C190.79 117.95 179.44 129.56 175.17 129.49C174.64 129.49 170.97 128.49 170.17 128.49H168.07V128.78C168.51 135.37 171.88 136.09 175.54 136.03Z" fill="#303030"/>
<path d="M196.81 191.89L196.16 191.48L196.41 192.2C197.41 195.03 198.55 197.73 198.53 198.11C198.567 198.39 198.503 198.673 198.352 198.911C198.2 199.149 197.969 199.325 197.7 199.41C197.26 199.6 196.56 199.8 196.55 200.62C196.54 201.44 197.75 203.46 197.98 204.94C198.44 207.61 198.53 210.43 198.78 213.19L199.02 220.95C198.982 225.544 198.537 230.125 197.69 234.64C196.54 240.35 194.36 245.43 190.69 245.38H185.31C183.86 245.43 182.88 247.13 181.89 249.03C181.105 250.772 180.203 252.46 179.19 254.08L161.27 240.78L161.11 240.9C160.938 240.996 160.801 241.146 160.72 241.326C160.639 241.506 160.618 241.707 160.66 241.9C160.73 242.45 161.46 243.17 162.66 244.65C166.12 248.93 173.23 258.14 174.83 270.76V271H175.97C177.28 270.92 178.57 269.7 179.62 268.34C180.558 267.238 181.195 265.911 181.47 264.49C181.42 263.28 179.95 261.9 179.99 260.85C180.03 259.8 180.99 257.85 182.33 256.31C183.67 254.77 185.33 253.44 186.53 253.46C187.06 253.46 193.24 254.96 193.95 254.97C194.776 254.856 195.582 254.635 196.35 254.31C197.35 253.91 198.21 253.54 198.46 252.95C200.14 248.07 205.69 238.54 205.72 232.63L204.72 222.32C204.655 221.668 204.76 221.011 205.027 220.413C205.293 219.815 205.712 219.297 206.24 218.91C206.828 218.469 207.293 217.884 207.591 217.212C207.888 216.539 208.009 215.802 207.94 215.07C207.95 209.33 203.89 196.42 196.81 191.89Z" fill="#303030"/>
<path d="M130.61 163.7C130.028 163.844 129.437 163.945 128.84 164C128.21 164.09 127.51 164.44 127.53 165.29C127.53 166.79 128.85 167.94 129.65 169.4C133.65 176.68 139.25 177.49 144.49 177.47C145.98 177.47 146.72 177.47 147.1 176.71C147.376 175.65 147.537 174.564 147.58 173.47C149.45 173.67 152.97 176.47 153.95 177.08C155.24 177.81 157.83 177.7 158.64 178.23C159.45 178.76 162.49 183.43 162.41 184.11C162.41 186.79 155.94 196.73 155.04 198.54V198.62V198.7C155.076 198.881 155.178 199.042 155.325 199.153C155.473 199.263 155.656 199.316 155.84 199.3H155.89C156.767 199.021 157.615 198.656 158.42 198.21C162.52 196.21 170.42 192 172.47 189.36C173.47 187.96 173.58 185.02 173.6 184.36C173.566 181.976 172.588 179.703 170.88 178.04L170.66 177.85L170.5 178.08C169.91 178.89 169.5 179.64 168.68 181.08C165.37 173.18 150.76 167.73 145.25 167.69C144.545 167.728 143.859 167.934 143.25 168.29L143.11 168.36V169.5L143.18 169.58C144.06 170.46 144.86 171.47 144.83 171.85C144.83 172.67 144.36 172.67 143.83 172.71C143.001 172.334 142.227 171.846 141.53 171.26C140.53 170.504 139.581 169.682 138.69 168.8C138.919 168.598 139.215 168.491 139.52 168.5C139.931 168.521 140.338 168.595 140.73 168.72H140.84L140.94 168.66C141.147 168.59 141.325 168.455 141.448 168.274C141.571 168.094 141.631 167.878 141.62 167.66C141.55 166.29 138.76 163.49 135.79 160.76C134.3 159.41 132.79 158.14 131.54 157.2C130.772 156.483 129.858 155.94 128.86 155.61C128.639 155.582 128.415 155.612 128.209 155.698C128.004 155.784 127.825 155.923 127.69 156.1C127.53 156.408 127.461 156.754 127.49 157.1C127.49 158.17 128.41 159.4 129.27 160.57C129.968 161.32 130.536 162.182 130.95 163.12C130.98 163.43 130.88 163.52 130.61 163.7Z" fill="#303030"/>
<path d="M102.43 213.62L102.14 213.43L102.03 213.75C101.75 214.54 101.57 215.1 101.41 215.64L100.83 215.59C99.11 202.5 92.46 199.92 82.55 199.97C81.88 199.97 75.82 200.73 75.25 200.73C74.3314 200.641 73.4465 200.338 72.6666 199.845C71.8867 199.352 71.2336 198.682 70.76 197.89C69.5835 196.271 68.912 194.34 68.83 192.34C68.9123 190.37 69.5426 188.462 70.65 186.83C71.56 185.31 72.5 184.32 72.54 183.56C72.54 182.64 71.75 182.32 71.18 181.98C70.8445 181.845 70.5584 181.611 70.3599 181.309C70.1615 181.007 70.0603 180.651 70.07 180.29C70.01 176.81 80.69 162.54 81.75 161.4C81.99 161.11 84.22 159.05 86.58 157.11C88.94 155.17 91.58 153.3 92.32 153.34C92.77 153.34 94.88 154.56 95.66 154.6C96.44 154.64 98.66 152.84 99.07 152.6H99.16L99.51 152.5L100.75 152.14C101.75 151.85 103.14 151.47 104.58 151.09C106.871 150.413 109.211 149.918 111.58 149.61C112.11 149.61 116.07 150.61 116.77 150.61C117.68 150.52 117.94 149.41 118.2 148.34C118.379 147.474 118.486 146.594 118.52 145.71C118.52 144.93 117.26 142.55 117.28 142.07C117.259 141.72 117.309 141.369 117.428 141.039C117.547 140.709 117.731 140.407 117.97 140.15C118.801 139.201 119.569 138.199 120.27 137.15L119.92 136.77C117.86 137.97 115.68 139.49 113.92 140.71C112.866 141.554 111.71 142.263 110.48 142.82C109.348 142.479 108.268 141.984 107.27 141.35C106.201 140.659 105.03 140.14 103.8 139.81C101.27 139.81 100.52 142.22 97.95 144.48C95.38 146.74 90.95 149.14 81.28 149.42H81.13L81.05 149.55C75.66 159.63 65.49 170.55 59.74 180.7C59.3 181.52 56.68 186.46 56.66 188.35C56.6814 188.73 56.7624 189.105 56.9 189.46V189.59L57.83 190H57.89C58.5132 189.935 59.1141 189.731 59.6487 189.404C60.1832 189.077 60.6381 188.635 60.98 188.11C61.72 187.23 62.33 186.47 63.2 186.48C64.71 186.48 64.8 187.25 64.85 188.17C64.85 188.59 64.79 189.01 64.79 189.36C64.79 192.27 63.07 195.28 63.06 198.36C63.06 202.31 65.42 204.03 68.31 204.55V205.13C59.94 206.08 57.6 212.33 57.64 220.81C57.64 222.98 60.21 230.58 60.36 231.12C60.36 231.26 60.21 231.39 59.97 231.57C59.8027 231.658 59.6601 231.786 59.5553 231.944C59.4505 232.101 59.3868 232.282 59.37 232.47C59.37 234.82 61.8 238.4 64.71 241.47C67.62 244.54 71.01 247.1 73.24 247.13C74.78 247.13 76.64 244.9 78.43 242.33C80.0457 240.029 81.3629 237.533 82.35 234.9L82.45 234.56H82.1C79.0364 234.215 76.0631 233.306 73.33 231.88C70.05 230.23 67.33 227.88 67.33 225.31C67.33 224.73 68.07 219.72 68.07 219.03C68.1087 218.54 67.9516 218.054 67.633 217.679C67.3144 217.304 66.8602 217.071 66.37 217.03C65.5 216.85 64.5 216.91 63.91 216.76C63.51 216.63 63.38 216.55 63.37 216.22C63.37 213.49 64.62 213.14 67.59 209.22H68.59C69.51 209.92 71.81 211.37 73.93 212.93C76.05 214.49 78.03 216.31 77.93 217.12C77.93 217.63 77.45 218.51 77.44 219.25C77.4554 219.731 77.6357 220.192 77.9507 220.557C78.2656 220.921 78.6961 221.165 79.17 221.25C80.0641 221.482 80.9866 221.586 81.91 221.56C84.1 221.56 87.91 220.68 89.91 218.49L90.28 218.09H89.74C82.85 217.52 78.2 210.8 73.91 205.48C73.7195 205.258 73.4579 205.11 73.17 205.06V204.47C74.42 204.26 75.95 203.99 77.39 203.8C79.39 206.8 81.52 210.52 84.3 212.18C86.68 213.56 90.9 213.39 92.67 214.81C96.06 217.47 97.59 222.97 100.31 227.36C100.737 230.024 101.379 232.65 102.23 235.21L102.29 235.38H103.48L103.56 235.27C105.67 232.41 106.65 227.06 106.65 224.27C106.65 221.48 105.27 215.6 102.43 213.62Z" fill="#303030"/>
<path d="M54.9 176.05C64.03 166.98 73.23 159.28 73.29 153.05C73.23 150.35 69.68 149.05 66.96 149.05C61.91 149.05 57.91 152.25 54.57 155.4C51.23 158.55 48.51 161.64 46.3 161.59C44.63 161.66 41.95 158.1 41.3 156.74L41.23 156.61H41.09C34.21 155.99 29.84 146.81 27.87 140.96L27.36 141.03L27 145.03V145.09C28.73 149.81 30.57 155.93 33.49 159.92C35.2 162.22 38.37 162.58 39.99 163.92C41.61 165.26 42.63 167.29 44.06 168.62L44.54 169.07V168.42C44.5352 168.363 44.5352 168.307 44.54 168.25C44.54 166.13 46.62 163.62 49.21 161.7C51.8 159.78 54.87 158.41 56.6 158.42C57.89 158.42 59.16 158.79 59.18 160.79C59.25 167.89 43.64 183.46 38.85 185.94C28.85 191.17 27.74 198.31 27.76 205.41V228.23L26.27 240.62C26.3199 241.139 26.4238 241.652 26.58 242.15C26.82 242.82 27.06 243.58 27.77 243.65C29.08 243.56 30.77 241.2 32.41 238.73C33.6216 236.94 34.6852 235.053 35.59 233.09C36.7674 229.257 37.4693 225.294 37.68 221.29L36.68 206.29C36.66 195.38 45.75 185.08 54.9 176.05Z" fill="#303030"/>
<path d="M37.06 126H44.17C45.03 125.95 46.07 124.79 47.24 123.67C48.41 122.55 49.58 121.43 49.89 121.49C54.68 121.49 59.26 125.06 63.45 128.7C67.64 132.34 71.45 136.01 75 136.03C78.55 136.05 82 135.37 82.41 128.79V128.5H80.31C79.55 128.5 75.88 129.5 75.31 129.5C71.04 129.57 59.69 117.96 43.89 117.96C41.6726 118.008 39.461 118.205 37.27 118.55C34.66 118.99 32.27 119.55 31.5 120.64C30.98 121.5 27.98 131.03 27.96 133.57V136.42L28.41 135.96C30.37 133.92 33.04 125.92 37.06 126Z" fill="#303030"/>
<path d="M89.41 240.9L89.25 240.78L71.32 254.08C70.3032 252.462 69.401 250.774 68.62 249.03C67.62 247.13 66.62 245.43 65.2 245.38H59.82C56.18 245.43 54 240.38 52.82 234.64C51.9733 230.125 51.5283 225.544 51.49 220.95L51.73 213.19C51.98 210.43 52.07 207.61 52.53 204.94C52.76 203.46 53.93 201.42 53.96 200.62C53.99 199.82 53.25 199.62 52.81 199.41C52.5409 199.325 52.3103 199.149 52.1585 198.911C52.0067 198.673 51.9435 198.39 51.98 198.11C51.98 197.73 53.08 195.03 54.1 192.2L54.35 191.48L53.7 191.89C46.62 196.42 42.56 209.33 42.54 215.04C42.4714 215.772 42.5917 216.509 42.8893 217.182C43.187 217.854 43.652 218.439 44.24 218.88C44.7683 219.267 45.1865 219.785 45.4531 220.383C45.7197 220.981 45.8255 221.638 45.76 222.29L44.76 232.6C44.76 238.51 50.34 248.04 52.02 252.92C52.27 253.51 53.16 253.92 54.13 254.28C54.8975 254.605 55.7045 254.826 56.53 254.94C57.24 254.94 63.42 253.42 63.95 253.43C65.11 253.43 66.81 254.68 68.15 256.28C69.49 257.88 70.5 259.78 70.49 260.82C70.48 261.86 69.06 263.25 69.01 264.46C69.2846 265.881 69.9219 267.207 70.86 268.31C71.91 269.67 73.2 270.89 74.51 270.97H75.65V270.73C77.25 258.11 84.36 248.9 87.83 244.62C88.99 243.14 89.72 242.42 89.83 241.87C89.8682 241.685 89.8483 241.492 89.7732 241.319C89.698 241.145 89.5712 240.999 89.41 240.9V240.9Z" fill="#303030"/>
<path d="M114.71 160.7C111.71 163.43 108.95 166.23 108.88 167.6C108.869 167.818 108.929 168.034 109.052 168.214C109.174 168.395 109.353 168.53 109.56 168.6L109.66 168.66H109.77C110.162 168.535 110.569 168.461 110.98 168.44C111.285 168.431 111.581 168.538 111.81 168.74C110.919 169.622 109.97 170.444 108.97 171.2C108.273 171.786 107.499 172.274 106.67 172.65C106.16 172.65 105.72 172.65 105.67 171.79C105.67 171.41 106.43 170.4 107.31 169.52L107.38 169.44V168.3L107.24 168.23C106.631 167.873 105.945 167.668 105.24 167.63C99.73 167.63 85.12 173.12 81.81 181.02C80.98 179.61 80.58 178.86 79.99 178.02L79.83 177.79L79.61 177.98C77.9021 179.643 76.9238 181.916 76.89 184.3C76.89 184.96 76.98 187.9 78.02 189.3C80.02 191.94 87.97 196.16 92.07 198.15C92.8754 198.596 93.7229 198.961 94.6 199.24H94.65C94.8338 199.256 95.017 199.203 95.1646 199.093C95.3122 198.982 95.4138 198.821 95.45 198.64V198.56V198.48C94.55 196.67 88.04 186.73 88.08 184.05C88 183.37 91.08 178.61 91.85 178.17C92.62 177.73 95.25 177.75 96.54 177.02C97.54 176.44 101.04 173.61 102.91 173.41C102.948 174.505 103.109 175.592 103.39 176.65C103.77 177.37 104.51 177.41 106 177.41C111.24 177.41 116.81 176.62 120.84 169.34C121.64 167.88 122.94 166.73 122.96 165.23C122.96 164.38 122.28 164.03 121.65 163.94C121.053 163.885 120.462 163.784 119.88 163.64C119.61 163.51 119.51 163.42 119.5 163.1C119.918 162.164 120.485 161.303 121.18 160.55C122.05 159.38 122.95 158.15 122.96 157.08C122.989 156.734 122.92 156.388 122.76 156.08C122.625 155.903 122.446 155.764 122.241 155.678C122.035 155.592 121.811 155.562 121.59 155.59C120.592 155.92 119.678 156.463 118.91 157.18C117.72 158.11 116.2 159.38 114.71 160.7Z" fill="#303030"/>
<path d="M161.73 202.52C160.97 205.35 161.73 207.01 159.09 207.01C157.98 207.01 157.64 206.71 156.61 204.46C155.852 205.397 155.151 206.379 154.51 207.4C157.23 210.2 157.37 210.52 159.46 210.52C161.26 210.52 164.9 209.33 164.88 206.92V202.5C163.2 202.5 162.67 202.5 161.73 202.52Z" fill="#F9B122"/>
<path d="M88.81 202.52C89.58 205.35 88.81 207.01 91.45 207.01C92.56 207.01 92.9 206.71 93.93 204.46C94.6881 205.395 95.3861 206.377 96.02 207.4C93.31 210.2 93.17 210.52 91.08 210.52C89.28 210.52 85.64 209.33 85.66 206.92V202.5C87.34 202.5 87.87 202.5 88.81 202.52Z" fill="#F9B122"/>
<path d="M161.12 218.98C161.223 219.103 161.337 219.217 161.46 219.32C161.36 219.2 161.27 219.08 161.12 218.98Z" fill="#F9B122"/>
<path d="M176.6 205.45C176.792 205.226 177.058 205.077 177.35 205.03V204.44C176.09 204.23 174.56 203.96 173.12 203.77C171.12 206.77 168.99 210.49 166.21 212.15C163.83 213.53 159.61 213.36 157.84 214.78C155.84 216.36 154.47 218.94 153.13 221.69C155.204 219.897 157.693 218.65 160.37 218.06L160.59 218.01V218.07H160.75C167.66 217.49 172.27 210.77 176.6 205.45Z" fill="#F9B122"/>
<path d="M167.99 199.97C168.66 199.97 174.72 200.73 175.29 200.73C176.209 200.641 177.093 200.338 177.873 199.845C178.653 199.352 179.306 198.682 179.78 197.89C180.956 196.271 181.628 194.34 181.71 192.34C181.628 190.37 180.997 188.462 179.89 186.83C178.98 185.31 178.04 184.32 177.99 183.56C178.008 183.271 178.106 182.994 178.274 182.759C178.442 182.523 178.673 182.34 178.94 182.23C179.131 182.048 179.36 181.912 179.61 181.83C179.884 181.681 180.111 181.457 180.263 181.185C180.415 180.912 180.487 180.602 180.47 180.29C180.47 178.87 178.72 175.64 176.55 172.29C176.31 172.06 176.11 171.87 175.96 171.75L175.69 171.64C174.23 171.04 159.15 164.16 155.29 164.18C154.975 164.141 154.656 164.17 154.354 164.266C154.052 164.363 153.775 164.523 153.541 164.737C153.307 164.951 153.122 165.213 152.999 165.506C152.877 165.798 152.819 166.113 152.83 166.43C153.243 167.587 153.797 168.689 154.48 169.71C154.508 169.778 154.531 169.849 154.55 169.92C160.36 172.24 166.55 176.15 168.61 180.97C169.44 179.56 169.84 178.81 170.43 177.97L170.59 177.74L170.81 177.93C172.518 179.593 173.496 181.866 173.53 184.25C173.53 184.91 173.44 187.85 172.4 189.25C170.4 191.89 162.45 196.11 158.35 198.1C157.545 198.546 156.697 198.911 155.82 199.19H155.77C155.601 199.2 155.434 199.154 155.293 199.06C155.152 198.966 155.046 198.83 154.99 198.67C152.66 200.98 149.04 203.67 149.07 206.67C149.07 207.15 150.07 210.85 150.27 212.11C152.7 202.05 159 199.93 167.99 199.97Z" fill="#F9B122"/>
<path d="M179.27 254.08C180.283 252.46 181.185 250.772 181.97 249.03C182.97 247.13 183.97 245.43 185.39 245.38H190.77C194.41 245.43 196.59 240.38 197.77 234.64C198.617 230.125 199.062 225.544 199.1 220.95L198.86 213.19C198.63 210.6 198.52 207.97 198.13 205.45H197.92C195.04 205.63 194 207.37 193.49 209.63C192.98 211.89 193.17 214.56 192.85 216.33L192.78 216.72C192.933 218.084 193.003 219.457 192.99 220.83C192.99 223 190.42 230.6 190.27 231.14C190.27 231.28 190.42 231.41 190.66 231.59C190.827 231.678 190.97 231.806 191.075 231.964C191.18 232.121 191.243 232.302 191.26 232.49C191.26 234.84 188.83 238.42 185.92 241.49C184.046 243.601 181.802 245.353 179.3 246.66L179.36 246.72H179.07C178.538 246.948 177.969 247.081 177.39 247.11H177.3C176.491 247.344 175.665 247.515 174.83 247.62C171.99 247.62 168.83 246.02 165.83 243.98L179.27 254.08Z" fill="#F9B122"/>
<path d="M89.42 218.98C89.3 219.08 89.18 219.2 89.05 219.3C89.1806 219.202 89.3042 219.095 89.42 218.98Z" fill="#F9B122"/>
<path d="M92.7 214.78C90.93 213.36 86.7 213.53 84.33 212.15C81.55 210.49 79.38 206.74 77.42 203.77C75.98 203.96 74.42 204.23 73.2 204.44V205.03C73.4879 205.08 73.7495 205.228 73.94 205.45C78.23 210.77 82.88 217.45 89.77 218.06H89.93V218L90.15 218.05C92.8274 218.64 95.3157 219.887 97.39 221.68C96.07 218.94 94.71 216.36 92.7 214.78Z" fill="#F9B122"/>
<path d="M70.93 181.83C71.1804 181.912 71.4094 182.048 71.6 182.23C71.8667 182.34 72.0967 182.523 72.2632 182.758C72.4296 182.994 72.5256 183.272 72.54 183.56C72.54 184.32 71.54 185.31 70.65 186.83C69.5426 188.462 68.9123 190.37 68.83 192.34C68.912 194.34 69.5835 196.271 70.76 197.89C71.239 198.679 71.8967 199.344 72.6801 199.833C73.4635 200.321 74.3506 200.618 75.27 200.7C75.84 200.7 81.9 199.95 82.57 199.94C91.57 199.94 97.86 202.02 100.24 212.17C100.45 210.91 101.45 207.17 101.44 206.73C101.44 203.73 97.85 201.01 95.52 198.73C95.4639 198.89 95.3575 199.026 95.2168 199.12C95.0761 199.214 94.9088 199.26 94.74 199.25H94.69C93.8129 198.971 92.9655 198.606 92.16 198.16C88.06 196.16 80.16 191.95 78.11 189.31C77.11 187.91 76.99 184.97 76.98 184.31C77.0138 181.926 77.992 179.653 79.7 177.99L79.92 177.8L80.08 178.03C80.67 178.84 81.08 179.59 81.9 181.03C83.9 176.21 90.15 172.3 95.95 169.98L96.03 169.77C96.713 168.749 97.2672 167.647 97.68 166.49C97.6911 166.173 97.6333 165.858 97.5107 165.566C97.388 165.273 97.2033 165.011 96.9694 164.797C96.7355 164.583 96.4579 164.423 96.1559 164.326C95.8538 164.23 95.5345 164.201 95.22 164.24C91.36 164.24 76.28 171.1 74.82 171.7L74.55 171.81C74.4 171.93 74.2 172.12 73.96 172.35C71.79 175.75 69.96 178.98 70.04 180.35C70.0371 180.655 70.1188 180.955 70.2759 181.216C70.433 181.477 70.6594 181.69 70.93 181.83V181.83Z" fill="#F9B122"/>
<path d="M73.36 247.15H73.27C72.6913 247.121 72.1225 246.989 71.59 246.76H71.3L71.36 246.7C68.8575 245.393 66.6142 243.641 64.74 241.53C61.83 238.43 59.42 234.85 59.4 232.53C59.4168 232.342 59.4805 232.161 59.5853 232.004C59.6901 231.846 59.8327 231.718 60 231.63C60.24 231.45 60.38 231.32 60.39 231.18C60.24 230.64 57.68 223.04 57.67 220.87C57.6565 219.497 57.7266 218.124 57.88 216.76V216.76L57.81 216.37C57.49 214.6 57.66 211.93 57.17 209.67C56.68 207.41 55.62 205.67 52.74 205.49H52.53C52.14 208.01 52.03 210.64 51.8 213.23L51.56 220.99C51.5983 225.584 52.0433 230.165 52.89 234.68C54.04 240.39 56.22 245.47 59.89 245.42H65.27C66.72 245.47 67.7 247.17 68.69 249.07C69.471 250.814 70.3732 252.502 71.39 254.12L84.96 244.06C81.89 246.06 78.76 247.69 75.96 247.7C75.0797 247.588 74.2101 247.405 73.36 247.15V247.15Z" fill="#F9B122"/>
<path d="M118.36 62.8182C114.116 65.4118 108.117 67.4305 100.363 68.8743C92.6097 70.2914 84.0177 71 74.5874 71C64.6857 71 55.9889 69.9037 48.4971 67.7112C41.0576 65.492 35.2947 62.2834 31.2083 58.0856C27.1742 53.8877 25.1048 48.9545 25 43.2861V39.3155C25 33.4866 26.9122 28.4465 30.7367 24.1952C34.6136 19.9171 40.167 16.6551 47.3969 14.4091C54.6791 12.1364 63.1925 11 72.9371 11C86.5062 11 97.1153 12.6578 104.764 15.9733C112.413 19.262 116.945 24.0615 118.36 30.3717H95.4126C94.3648 27.0294 92.0334 24.5829 88.4185 23.0321C84.8559 21.4813 79.9312 20.7059 73.6444 20.7059C65.6287 20.7059 59.5252 22.2433 55.334 25.3182C51.1428 28.393 49.021 32.9652 48.9686 39.0348V42.7647C48.9686 48.8877 51.2475 53.5134 55.8055 56.6417C60.3635 59.7701 67.0432 61.3342 75.8448 61.3342C84.6988 61.3342 91.0118 60.3717 94.7839 58.4465V48.3797H73.3301V39.516H118.36V62.8182Z" fill="#F9B122"/>
<path d="M137.534 70.1979V11.8021H172.741C182.8 11.8021 191.785 12.9652 199.695 15.2914C207.659 17.5909 213.867 20.8797 218.32 25.1578C222.773 29.4091 225 34.2487 225 39.6765V42.3636C225 47.7914 222.8 52.6176 218.399 56.8422C214.05 61.0668 207.895 64.3422 199.931 66.6684C191.968 68.9947 182.983 70.1711 172.976 70.1979H137.534ZM161.11 21.5481V60.5321H172.505C181.726 60.5321 188.772 58.9947 193.644 55.9198C198.517 52.8449 201.005 48.4465 201.11 42.7246V39.6364C201.11 33.7005 198.7 29.2086 193.88 26.1604C189.06 23.0856 182.014 21.5481 172.741 21.5481H161.11Z" fill="#F9B122"/>
<path d="M26.9152 357.174V368.454H20.312V336.44H32.8141C35.2206 336.44 37.3337 336.88 39.1532 337.759C40.9875 338.639 42.3962 339.892 43.3793 341.519C44.3624 343.131 44.854 344.971 44.854 347.038C44.854 350.175 43.7755 352.652 41.6184 354.47C39.4761 356.273 36.5046 357.174 32.7041 357.174H26.9152ZM26.9152 351.831H32.8141C34.5603 351.831 35.8883 351.421 36.7981 350.6C37.7225 349.779 38.1848 348.606 38.1848 347.082C38.1848 345.513 37.7225 344.245 36.7981 343.278C35.8736 342.311 34.597 341.812 32.9682 341.783H26.9152V351.831Z" fill="#F9B122"/>
<path d="M61.2741 356.735H56.0135V368.454H49.4103V336.44H61.3181C65.1039 336.44 68.024 337.283 70.0784 338.968C72.1327 340.654 73.1599 343.036 73.1599 346.114C73.1599 348.299 72.683 350.124 71.7292 351.589C70.79 353.041 69.3593 354.199 67.4371 355.064L74.3705 368.146V368.454H67.283L61.2741 356.735ZM56.0135 351.392H61.3401C62.9982 351.392 64.2822 350.974 65.192 350.138C66.1018 349.288 66.5566 348.123 66.5566 346.642C66.5566 345.132 66.1238 343.945 65.258 343.08C64.4069 342.215 63.0936 341.783 61.3181 341.783H56.0135V351.392Z" fill="#F9B122"/>
<path d="M104.525 353.173C104.525 356.324 103.968 359.087 102.852 361.462C101.737 363.837 100.138 365.669 98.0541 366.959C95.985 368.249 93.6079 368.894 90.9226 368.894C88.2666 368.894 85.8968 368.256 83.8131 366.981C81.7294 365.706 80.1153 363.888 78.9707 361.528C77.8262 359.153 77.2465 356.427 77.2319 353.348V351.765C77.2319 348.614 77.7968 345.843 78.9267 343.454C80.0713 341.05 81.678 339.21 83.7471 337.935C85.8307 336.645 88.2079 336 90.8785 336C93.5492 336 95.919 336.645 97.988 337.935C100.072 339.21 101.678 341.05 102.808 343.454C103.953 345.843 104.525 348.606 104.525 351.743V353.173ZM97.8339 351.721C97.8339 348.365 97.2323 345.814 96.0291 344.07C94.8258 342.325 93.109 341.453 90.8785 341.453C88.6628 341.453 86.9533 342.318 85.75 344.048C84.5468 345.763 83.9378 348.284 83.9231 351.611V353.173C83.9231 356.441 84.5248 358.977 85.728 360.78C86.9313 362.583 88.6628 363.485 90.9226 363.485C93.1383 363.485 94.8405 362.62 96.0291 360.89C97.2176 359.146 97.8193 356.61 97.8339 353.283V351.721Z" fill="#F9B122"/>
<path d="M145.707 357.79C145.458 361.235 144.181 363.947 141.878 365.926C139.588 367.905 136.566 368.894 132.809 368.894C128.7 368.894 125.465 367.516 123.102 364.76C120.754 361.99 119.581 358.193 119.581 353.37V351.414C119.581 348.335 120.124 345.623 121.209 343.278C122.295 340.933 123.843 339.137 125.854 337.891C127.879 336.63 130.226 336 132.897 336C136.595 336 139.574 336.989 141.833 338.968C144.093 340.947 145.399 343.725 145.751 347.302H139.148C138.987 345.235 138.407 343.74 137.409 342.816C136.426 341.878 134.922 341.409 132.897 341.409C130.696 341.409 129.045 342.201 127.945 343.784C126.859 345.352 126.301 347.793 126.272 351.106V353.524C126.272 356.984 126.793 359.512 127.835 361.11C128.891 362.708 130.549 363.507 132.809 363.507C134.849 363.507 136.367 363.045 137.365 362.122C138.378 361.184 138.957 359.74 139.104 357.79H145.707Z" fill="#F9B122"/>
<path d="M168.136 361.858H156.559L154.358 368.454H147.336L159.266 336.44H165.385L177.381 368.454H170.359L168.136 361.858ZM158.342 356.515H166.353L162.326 344.531L158.342 356.515Z" fill="#F9B122"/>
<path d="M192.238 356.735H186.978V368.454H180.374V336.44H192.282C196.068 336.44 198.988 337.283 201.042 338.968C203.097 340.654 204.124 343.036 204.124 346.114C204.124 348.299 203.647 350.124 202.693 351.589C201.754 353.041 200.323 354.199 198.401 355.064L205.335 368.146V368.454H198.247L192.238 356.735ZM186.978 351.392H192.304C193.962 351.392 195.246 350.974 196.156 350.138C197.066 349.288 197.521 348.123 197.521 346.642C197.521 345.132 197.088 343.945 196.222 343.08C195.371 342.215 194.058 341.783 192.282 341.783H186.978V351.392Z" fill="#F9B122"/>
<path d="M228.446 354.58H215.768V363.155H230.647V368.454H209.164V336.44H230.603V341.783H215.768V349.413H228.446V354.58Z" fill="#F9B122"/>
<path d="M35.9608 400.161C35.9608 398.915 35.5206 397.962 34.6401 397.302C33.7597 396.628 32.1749 395.924 29.8858 395.192C27.5967 394.444 25.7845 393.711 24.4492 392.993C20.81 391.029 18.9905 388.383 18.9905 385.055C18.9905 383.325 19.4747 381.786 20.4432 380.438C21.4263 379.074 22.8277 378.012 24.6473 377.249C26.4815 376.487 28.5358 376.106 30.8103 376.106C33.0994 376.106 35.1391 376.524 36.9293 377.359C38.7195 378.18 40.1062 379.346 41.0893 380.855C42.0871 382.365 42.586 384.08 42.586 386.001H35.9828C35.9828 384.535 35.5206 383.399 34.5961 382.592C33.6717 381.772 32.373 381.361 30.7002 381.361C29.0861 381.361 27.8315 381.706 26.9364 382.395C26.0413 383.069 25.5937 383.963 25.5937 385.077C25.5937 386.118 26.1146 386.99 27.1565 387.694C28.213 388.397 29.7611 389.057 31.8008 389.673C35.5573 390.801 38.2939 392.201 40.0108 393.872C41.7276 395.543 42.586 397.625 42.586 400.117C42.586 402.887 41.5369 405.064 39.4385 406.647C37.3401 408.216 34.5154 409 30.9643 409C28.4991 409 26.254 408.553 24.229 407.659C22.2041 406.75 20.656 405.511 19.5848 403.943C18.5283 402.374 18 400.557 18 398.49H24.6252C24.6252 402.022 26.7383 403.789 30.9643 403.789C32.5344 403.789 33.7597 403.474 34.6401 402.843C35.5206 402.198 35.9608 401.304 35.9608 400.161Z" fill="#F9B122"/>
<path d="M67.71 394.686H55.0318V403.261H69.9111V408.56H48.4286V376.546H69.8671V381.889H55.0318V389.519H67.71V394.686Z" fill="#F9B122"/>
<path d="M87.0011 396.841H81.7406V408.56H75.1373V376.546H87.0451C90.831 376.546 93.7511 377.389 95.8054 379.074C97.8598 380.76 98.8869 383.142 98.8869 386.22C98.8869 388.405 98.41 390.23 97.4562 391.695C96.5171 393.147 95.0864 394.305 93.1641 395.17L100.098 408.252V408.56H93.0101L87.0011 396.841ZM81.7406 391.498H87.0672C88.7253 391.498 90.0093 391.08 90.919 390.244C91.8288 389.394 92.2837 388.229 92.2837 386.748C92.2837 385.238 91.8508 384.051 90.9851 383.186C90.134 382.321 88.8207 381.889 87.0451 381.889H81.7406V391.498Z" fill="#F9B122"/>
<path d="M116.681 400.623L123.945 376.546H131.296L120.137 408.56H113.248L102.132 376.546H109.462L116.681 400.623Z" fill="#F9B122"/>
<path d="M142.708 408.56H136.105V376.546H142.708V408.56Z" fill="#F9B122"/>
<path d="M175.359 397.896C175.11 401.341 173.833 404.053 171.53 406.032C169.24 408.011 166.218 409 162.461 409C158.352 409 155.117 407.622 152.754 404.866C150.407 402.096 149.233 398.299 149.233 393.477V391.52C149.233 388.441 149.776 385.729 150.861 383.384C151.947 381.039 153.495 379.243 155.506 377.997C157.531 376.736 159.879 376.106 162.549 376.106C166.247 376.106 169.226 377.095 171.486 379.074C173.745 381.053 175.051 383.831 175.403 387.408H168.8C168.639 385.341 168.059 383.846 167.061 382.922C166.078 381.984 164.574 381.515 162.549 381.515C160.348 381.515 158.697 382.307 157.597 383.89C156.511 385.458 155.953 387.899 155.924 391.212V393.63C155.924 397.09 156.445 399.618 157.487 401.216C158.543 402.814 160.201 403.613 162.461 403.613C164.501 403.613 166.02 403.151 167.017 402.228C168.03 401.29 168.609 399.846 168.756 397.896H175.359Z" fill="#F9B122"/>
<path d="M200.329 394.686H187.651V403.261H202.53V408.56H181.048V376.546H202.486V381.889H187.651V389.519H200.329V394.686Z" fill="#F9B122"/>
<path d="M224.375 400.161C224.375 398.915 223.935 397.962 223.054 397.302C222.174 396.628 220.589 395.924 218.3 395.192C216.011 394.444 214.198 393.711 212.863 392.993C209.224 391.029 207.404 388.383 207.404 385.055C207.404 383.325 207.889 381.786 208.857 380.438C209.84 379.074 211.242 378.012 213.061 377.249C214.895 376.487 216.95 376.106 219.224 376.106C221.513 376.106 223.553 376.524 225.343 377.359C227.133 378.18 228.52 379.346 229.503 380.855C230.501 382.365 231 384.08 231 386.001H224.397C224.397 384.535 223.935 383.399 223.01 382.592C222.086 381.772 220.787 381.361 219.114 381.361C217.5 381.361 216.245 381.706 215.35 382.395C214.455 383.069 214.008 383.963 214.008 385.077C214.008 386.118 214.529 386.99 215.57 387.694C216.627 388.397 218.175 389.057 220.215 389.673C223.971 390.801 226.708 392.201 228.425 393.872C230.142 395.543 231 397.625 231 400.117C231 402.887 229.951 405.064 227.852 406.647C225.754 408.216 222.929 409 219.378 409C216.913 409 214.668 408.553 212.643 407.659C210.618 406.75 209.07 405.511 207.999 403.943C206.942 402.374 206.414 400.557 206.414 398.49H213.039C213.039 402.022 215.152 403.789 219.378 403.789C220.948 403.789 222.174 403.474 223.054 402.843C223.935 402.198 224.375 401.304 224.375 400.161Z" fill="#F9B122"/>
</svg>
