<svg width="240" height="240" viewBox="0 0 240 240" fill="none" xmlns="http://www.w3.org/2000/svg">
<rect width="240" height="240" fill="#F9B122"/>
<path d="M132.601 176.5C129.554 176.5 123.664 181.469 120.482 181.433C117.3 181.398 111.41 176.536 108.363 176.5C107.228 176.5 106.575 176.795 106.227 177.34C105.961 177.921 105.853 178.563 105.914 179.199C105.914 183.266 111.026 185.857 113.591 187.511C116.156 189.164 118.435 192.873 119.928 195.662L119.99 195.787H120.965L121.036 195.662C122.529 192.882 124.79 189.164 127.373 187.511C129.956 185.857 135.015 183.266 135.05 179.199C135.111 178.563 135.003 177.921 134.737 177.34C134.407 176.795 133.736 176.491 132.601 176.5Z" fill="#303030"/>
<path d="M161.666 136.334C162.09 136.259 162.475 136.04 162.756 135.714C163.038 135.389 163.199 134.977 163.213 134.547C163.213 133.885 162.757 133.099 162.775 132.643C162.721 131.919 164.446 130.301 166.35 128.898C168.254 127.495 170.3 126.217 171.122 125.582H172.016C174.698 129.104 175.797 129.417 175.788 131.839C175.788 132.134 175.663 132.205 175.305 132.321C174.778 132.455 173.884 132.402 173.107 132.563C172.668 132.599 172.263 132.808 171.978 133.143C171.693 133.478 171.553 133.912 171.587 134.35C171.587 134.967 172.258 139.445 172.249 139.963C172.249 142.269 169.809 144.36 166.886 145.835C164.443 147.11 161.786 147.922 159.048 148.23H158.735L158.824 148.534C159.707 150.887 160.884 153.118 162.328 155.175C163.928 157.472 165.59 159.42 166.967 159.465C168.96 159.465 171.972 157.159 174.59 154.406C177.209 151.653 179.345 148.436 179.363 146.362C179.348 146.194 179.291 146.032 179.197 145.892C179.104 145.751 178.976 145.636 178.827 145.558C178.612 145.397 178.487 145.281 178.478 145.156C178.612 144.673 180.909 137.88 180.909 135.941C180.909 128.362 178.853 122.776 171.373 121.927V121.408C173.956 120.944 176.083 119.406 176.065 115.876C176.065 113.097 174.51 110.406 174.519 107.832C174.519 107.519 174.465 107.144 174.465 106.769C174.51 105.946 174.59 105.294 175.94 105.258C176.717 105.258 177.263 105.929 177.924 106.715C178.23 107.184 178.636 107.58 179.114 107.872C179.592 108.164 180.129 108.346 180.686 108.404H180.739L181.571 108.038V107.922C181.697 107.605 181.773 107.27 181.794 106.93C181.794 105.24 179.425 100.825 179.032 100.092C173.893 91.0564 164.804 81.2608 159.986 72.2517L159.915 72.1355H159.807C151.129 71.8853 147.205 69.7671 144.909 67.7204C142.612 65.6737 141.941 63.5823 139.68 63.5465C138.582 63.8429 137.535 64.3071 136.579 64.9229C135.687 65.4899 134.722 65.9319 133.71 66.2367C132.61 65.7386 131.577 65.1051 130.635 64.3509C129.044 63.2605 127.06 61.902 125.273 60.8295L124.96 61.1691C125.586 62.1064 126.273 63.002 127.015 63.8504C127.229 64.0798 127.394 64.3501 127.5 64.6451C127.606 64.9401 127.651 65.2535 127.632 65.5664C127.632 65.9954 126.551 68.1225 126.524 68.8197C126.549 69.6101 126.645 70.3968 126.81 71.1703C127.042 72.1266 127.275 73.1187 128.088 73.1991C128.714 73.1991 132.253 72.3054 132.727 72.3054C134.844 72.5808 136.936 73.0231 138.983 73.6281C140.27 73.9677 141.494 74.3074 142.406 74.5666L143.514 74.8883L143.827 74.9777H143.908C144.283 75.1922 146.142 76.7652 146.955 76.7652C147.769 76.7652 149.538 75.6122 149.94 75.6391C150.611 75.6391 152.979 77.2657 155.071 79.0085C157.162 80.7514 159.173 82.5836 159.387 82.8428C160.335 83.8616 169.88 96.6156 169.827 99.7259C169.835 100.049 169.745 100.367 169.567 100.637C169.39 100.907 169.134 101.116 168.834 101.236C168.325 101.54 167.628 101.826 167.61 102.648C167.61 103.328 168.504 104.213 169.308 105.571C170.298 107.029 170.861 108.735 170.935 110.496C170.861 112.283 170.261 114.009 169.21 115.456C168.78 116.161 168.19 116.754 167.488 117.189C166.787 117.624 165.992 117.887 165.17 117.959C164.661 117.959 159.244 117.288 158.646 117.279C149.788 117.279 143.845 119.54 142.308 131.24L141.789 131.284C141.646 130.802 141.485 130.301 141.235 129.595L141.137 129.309L140.878 129.479C138.348 131.267 137.088 136.29 137.07 138.935C137.052 141.581 137.964 146.246 139.841 148.766L139.912 148.865H141.039L141.092 148.713C141.853 146.424 142.427 144.078 142.808 141.697C145.239 137.773 146.607 132.858 149.637 130.48C151.218 129.211 154.999 129.363 157.117 128.13C159.602 126.646 161.541 123.294 163.293 120.64C164.58 120.81 165.974 121.051 167.074 121.239V121.766C166.813 121.808 166.575 121.941 166.403 122.141C162.569 126.896 158.413 132.866 152.255 133.412H151.773L152.103 133.769C153.891 135.726 157.305 136.513 159.253 136.513C160.062 136.565 160.874 136.505 161.666 136.334Z" fill="#303030"/>
<path d="M207.659 142.51V122.115C207.659 115.769 206.649 109.387 197.748 104.713C193.467 102.497 179.515 88.5807 179.577 82.235C179.577 80.4475 180.73 80.1526 181.883 80.1168C183.43 80.1168 186.182 81.3234 188.488 83.0483C190.794 84.7733 192.68 87.0077 192.662 88.9024C192.666 88.953 192.666 89.0038 192.662 89.0544V89.6353L193.091 89.2331C194.369 88.0444 195.227 86.2122 196.729 85.0325C198.23 83.8527 201.01 83.522 202.538 81.4574C205.148 77.8824 206.792 72.4215 208.339 68.203V68.1494L208.017 64.5743L207.561 64.5118C205.774 69.7403 201.895 77.9182 195.746 78.4991H195.62L195.558 78.6332C194.968 79.8487 192.573 83.0305 191.089 82.9679C189.114 83.0126 186.62 80.2866 183.698 77.4355C180.775 74.5844 177.138 71.7602 172.624 71.7602C170.193 71.7602 167.02 72.9489 166.967 75.3352C167.02 80.8765 175.243 87.7584 183.403 95.8916C191.563 104.025 199.705 113.168 199.696 122.892L198.802 136.298C198.991 139.877 199.618 143.419 200.67 146.845C201.479 148.6 202.429 150.285 203.512 151.886C204.987 154.093 206.489 156.202 207.659 156.283C208.294 156.22 208.553 155.541 208.723 154.942C208.863 154.497 208.955 154.039 209 153.575L207.659 142.51Z" fill="#303030"/>
<path d="M165.411 60.1591C168.575 60.1591 171.963 56.8433 175.734 53.6079C179.506 50.3725 183.564 47.155 187.854 47.1639C188.131 47.1103 189.239 48.0577 190.222 49.1123C191.205 50.1669 192.197 51.1501 192.966 51.1947H199.321C202.896 51.1232 205.3 58.2733 206.998 60.0877L207.4 60.4988V57.9516C207.4 55.6814 204.719 47.1639 204.236 46.3953C203.566 45.4211 201.412 44.9206 199.079 44.5273C197.121 44.2194 195.144 44.0432 193.163 44C179.041 44 168.897 54.3765 165.081 54.314C164.607 54.314 161.327 53.4202 160.612 53.4202H158.735V53.6794C159.128 59.5693 162.14 60.2128 165.411 60.1591Z" fill="#303030"/>
<path d="M184.422 110.085L183.841 109.718L184.064 110.362C184.958 112.891 185.977 115.304 185.959 115.644C185.991 115.894 185.935 116.147 185.799 116.36C185.664 116.572 185.457 116.73 185.217 116.806C184.824 116.975 184.198 117.154 184.189 117.887C184.18 118.62 185.262 120.425 185.467 121.748C185.878 124.134 185.959 126.655 186.182 129.122L186.397 136.057C186.363 140.163 185.965 144.257 185.208 148.293C184.18 153.396 182.232 157.936 178.952 157.892H174.143C172.847 157.936 171.971 159.456 171.087 161.154C170.385 162.711 169.579 164.219 168.674 165.667L152.657 153.78L152.514 153.888C152.36 153.974 152.238 154.107 152.166 154.268C152.093 154.429 152.074 154.609 152.112 154.781C152.175 155.273 152.827 155.916 153.9 157.239C156.992 161.065 163.347 169.296 164.777 180.575V180.79H165.796C166.966 180.718 168.119 179.628 169.058 178.412C169.896 177.427 170.466 176.242 170.711 174.971C170.667 173.89 169.353 172.657 169.389 171.718C169.424 170.78 170.282 169.037 171.48 167.66C172.678 166.284 174.161 165.095 175.234 165.113C175.707 165.113 181.231 166.454 181.865 166.463C182.603 166.361 183.324 166.163 184.01 165.873C184.904 165.515 185.673 165.185 185.896 164.657C187.398 160.296 192.358 151.778 192.385 146.496L191.491 137.282C191.433 136.699 191.527 136.112 191.765 135.577C192.004 135.043 192.377 134.58 192.85 134.234C193.375 133.839 193.791 133.317 194.057 132.716C194.323 132.115 194.43 131.456 194.369 130.802C194.378 125.672 190.749 114.133 184.422 110.085Z" fill="#303030"/>
<path d="M125.255 84.8895C124.735 85.0185 124.206 85.1081 123.673 85.1576C123.11 85.238 122.484 85.5509 122.502 86.3106C122.502 87.6512 123.682 88.679 124.397 89.9839C127.972 96.4905 132.977 97.2144 137.66 97.1965C138.992 97.1965 139.653 97.1965 139.993 96.5173C140.24 95.5703 140.384 94.5994 140.422 93.6215C142.093 93.8002 145.239 96.3028 146.115 96.848C147.268 97.5004 149.583 97.4021 150.307 97.8758C151.031 98.3495 153.748 102.523 153.676 103.131C153.676 105.526 147.894 114.41 147.089 116.028V116.1V116.171C147.122 116.333 147.213 116.477 147.344 116.576C147.476 116.675 147.64 116.721 147.804 116.707H147.849C148.633 116.458 149.39 116.131 150.11 115.733C153.775 113.946 160.835 110.183 162.668 107.823C163.561 106.572 163.66 103.944 163.677 103.355C163.647 101.224 162.773 99.1925 161.246 97.706L161.05 97.5362L160.907 97.7417C160.38 98.4657 160.013 99.136 159.28 100.423C156.322 93.3623 143.264 88.4913 138.339 88.4556C137.709 88.4893 137.097 88.6732 136.552 88.9918L136.427 89.0544V90.0733L136.489 90.1448C137.276 90.9313 137.991 91.834 137.964 92.1736C137.964 92.9065 137.544 92.9065 137.07 92.9423C136.329 92.6059 135.638 92.1698 135.015 91.6463C134.121 90.9705 133.273 90.236 132.476 89.4477C132.681 89.2673 132.946 89.1714 133.218 89.1795C133.586 89.1983 133.949 89.2644 134.3 89.3761H134.398L134.487 89.3225C134.672 89.2603 134.832 89.1393 134.942 88.9779C135.051 88.8165 135.105 88.6237 135.095 88.4288C135.033 87.2043 132.539 84.7018 129.884 82.2618C128.553 81.0553 127.203 79.9202 126.086 79.08C125.4 78.439 124.582 77.9542 123.691 77.659C123.493 77.6339 123.293 77.6612 123.109 77.738C122.926 77.8149 122.766 77.9387 122.645 78.0969C122.502 78.372 122.44 78.6819 122.466 78.9907C122.466 79.947 123.289 81.0463 124.057 82.092C124.681 82.7625 125.189 83.5329 125.559 84.3711C125.585 84.6482 125.496 84.7286 125.255 84.8895Z" fill="#303030"/>
<path d="M100.069 129.506L99.8095 129.336L99.7112 129.622C99.461 130.328 99.3001 130.829 99.1571 131.311L98.6387 131.267C97.1014 119.567 91.1579 117.261 82.3008 117.306C81.702 117.306 76.2858 117.985 75.7764 117.985C74.9554 117.906 74.1645 117.635 73.4674 117.194C72.7704 116.753 72.1866 116.155 71.7634 115.447C70.7119 114 70.1117 112.274 70.0384 110.487C70.112 108.726 70.6753 107.02 71.6651 105.562C72.4784 104.204 73.3185 103.319 73.3542 102.639C73.3542 101.817 72.6482 101.531 72.1387 101.227C71.8389 101.107 71.5832 100.898 71.4058 100.628C71.2284 100.358 71.138 100.04 71.1467 99.7169C71.093 96.6066 80.6384 83.8527 81.5858 82.8338C81.8003 82.5746 83.7934 80.7335 85.9026 78.9996C88.0119 77.2657 90.3714 75.5944 91.0328 75.6301C91.435 75.6301 93.3208 76.7205 94.018 76.7562C94.7151 76.792 96.6992 75.1832 97.0657 74.9687H97.1461L97.4589 74.8793L98.5672 74.5576C99.461 74.2984 100.703 73.9588 101.99 73.6192C104.038 73.0141 106.13 72.5718 108.247 72.2964C108.72 72.2964 112.26 73.1902 112.885 73.1902C113.699 73.1097 113.931 72.1177 114.163 71.1613C114.323 70.3871 114.419 69.6008 114.449 68.8107C114.449 68.1136 113.323 65.9865 113.341 65.5575C113.322 65.2446 113.367 64.9311 113.473 64.6362C113.579 64.3412 113.744 64.0708 113.958 63.8415C114.7 62.9931 115.387 62.0975 116.013 61.1602L115.701 60.8205C113.859 61.8931 111.911 63.2516 110.338 64.342C109.396 65.0962 108.363 65.7297 107.263 66.2278C106.252 65.923 105.286 65.4809 104.394 64.9139C103.439 64.2965 102.392 63.8321 101.293 63.5375C99.0319 63.5375 98.3616 65.6915 96.0647 67.7114C93.7677 69.7313 89.8084 71.8763 81.1657 72.1266H81.0316L80.9601 72.2428C76.1428 81.2519 67.0533 91.0117 61.9141 100.083C61.5209 100.816 59.1793 105.231 59.1614 106.921C59.1805 107.26 59.2529 107.595 59.3759 107.913V108.029L60.2071 108.395H60.2607C60.8177 108.337 61.3547 108.155 61.8325 107.863C62.3103 107.571 62.7168 107.175 63.0224 106.706C63.6838 105.92 64.229 105.24 65.0065 105.249C66.3561 105.249 66.4365 105.937 66.4812 106.76C66.4812 107.135 66.4276 107.51 66.4276 107.823C66.4276 110.424 64.8904 113.114 64.8814 115.867C64.8814 119.397 66.9907 120.935 69.5737 121.4V121.918C62.0929 122.767 60.0015 128.353 60.0372 135.932C60.0372 137.871 62.3342 144.664 62.4683 145.147C62.4683 145.272 62.3342 145.388 62.1197 145.549C61.9702 145.627 61.8428 145.742 61.7491 145.883C61.6554 146.023 61.5985 146.185 61.5835 146.353C61.5835 148.454 63.7553 151.653 66.3561 154.397C68.957 157.141 71.9868 159.429 73.9799 159.456C75.3563 159.456 77.0187 157.463 78.6185 155.166C80.0626 153.109 81.2398 150.878 82.122 148.525L82.2114 148.221H81.8986C79.1605 147.913 76.503 147.101 74.0603 145.826C71.1288 144.351 68.6978 142.251 68.6978 139.954C68.6978 139.436 69.3591 134.958 69.3591 134.341C69.3937 133.903 69.2533 133.469 68.9686 133.134C68.6838 132.799 68.2779 132.59 67.8398 132.554C67.0622 132.393 66.1684 132.446 65.6411 132.312C65.2836 132.196 65.1674 132.125 65.1585 131.83C65.1585 129.39 66.2757 129.077 68.9302 125.573H69.8239C70.6462 126.199 72.7018 127.495 74.5966 128.889C76.4914 130.283 78.261 131.91 78.1716 132.634C78.1716 133.09 77.7426 133.876 77.7337 134.538C77.7475 134.968 77.9086 135.38 78.1901 135.705C78.4716 136.031 78.8563 136.25 79.2799 136.325C80.079 136.533 80.9035 136.626 81.7288 136.602C83.6861 136.602 87.0913 135.816 88.8789 133.859L89.2095 133.501H88.7269C82.5689 132.992 78.4129 126.985 74.5787 122.231C74.4085 122.033 74.1746 121.9 73.9173 121.855V121.328C75.0345 121.14 76.402 120.899 77.689 120.729C79.4765 123.41 81.3802 126.735 83.8649 128.219C85.992 129.452 89.7637 129.3 91.3456 130.569C94.3755 132.947 95.7429 137.863 98.1739 141.786C98.5554 144.167 99.1293 146.514 99.8899 148.802L99.9436 148.954H101.007L101.079 148.856C102.964 146.3 103.84 141.518 103.84 139.024C103.84 136.531 102.607 131.276 100.069 129.506Z" fill="#303030"/>
<path d="M57.5883 95.9274C65.7483 87.821 73.9709 80.9391 74.0245 75.3709C73.9709 72.9578 70.7981 71.7959 68.367 71.7959C63.8536 71.7959 60.2785 74.6559 57.2934 77.4713C54.3082 80.2866 51.8772 83.0483 49.902 83.0036C48.4094 83.0662 46.0141 79.8844 45.4332 78.6689L45.3706 78.5527H45.2455C39.0965 77.9986 35.1907 69.7939 33.43 64.5654L32.9742 64.6279L32.6525 68.203V68.2566C34.1987 72.4752 35.8432 77.945 38.4529 81.5111C39.9813 83.5667 42.8145 83.8885 44.2624 85.0861C45.7103 86.2837 46.6219 88.0981 47.9 89.2868L48.329 89.6889V89.108C48.3247 89.0575 48.3247 89.0066 48.329 88.9561C48.329 87.0613 50.188 84.818 52.5028 83.1019C54.8177 81.3859 57.5615 80.1615 59.1077 80.1704C60.2606 80.1704 61.3957 80.5011 61.4136 82.2886C61.4762 88.6343 47.5246 102.55 43.2435 104.767C34.3059 109.441 33.3138 115.822 33.3317 122.168V142.564L32 153.637C32.0446 154.102 32.1375 154.56 32.2771 155.005C32.4916 155.604 32.7061 156.283 33.3406 156.345C34.5115 156.265 36.0219 154.156 37.4877 151.948C38.5706 150.348 39.5211 148.662 40.3298 146.907C41.3822 143.482 42.0095 139.94 42.1978 136.361L41.304 122.955C41.2862 113.204 49.4104 103.998 57.5883 95.9274Z" fill="#303030"/>
<path d="M41.6436 51.1947H47.9982C48.7668 51.1501 49.6963 50.1133 50.742 49.1123C51.7877 48.1113 52.8334 47.1103 53.1105 47.1639C57.3916 47.1639 61.485 50.3546 65.2299 53.6079C68.9747 56.8612 72.38 60.1413 75.5528 60.1591C78.7256 60.177 81.8091 59.5693 82.1756 53.6883V53.4291H80.2987C79.6194 53.4291 76.3393 54.3229 75.8299 54.3229C72.0135 54.3855 61.8693 44.0089 47.7479 44.0089C45.7661 44.0522 43.7895 44.2283 41.8313 44.5363C39.4986 44.9295 37.3625 45.43 36.6743 46.4042C36.2095 47.1728 33.5283 55.6904 33.5104 57.9605V60.5077L33.9126 60.0966C35.6643 58.2733 38.0507 51.1232 41.6436 51.1947Z" fill="#303030"/>
<path d="M88.4319 153.888L88.2889 153.78L72.2638 165.667C71.355 164.221 70.5487 162.713 69.8506 161.154C68.9569 159.456 68.0631 157.936 66.794 157.892H61.9856C58.7323 157.936 56.7839 153.423 55.7292 148.293C54.9726 144.257 54.5748 140.163 54.5406 136.057L54.755 129.122C54.9785 126.655 55.0589 124.134 55.4701 121.748C55.6756 120.425 56.7213 118.602 56.7481 117.887C56.775 117.172 56.1136 116.993 55.7203 116.806C55.4798 116.73 55.2737 116.572 55.138 116.36C55.0024 116.147 54.9459 115.894 54.9785 115.644C54.9785 115.304 55.9616 112.891 56.8733 110.362L57.0967 109.718L56.5158 110.085C50.1879 114.133 46.5593 125.672 46.5414 130.775C46.4801 131.429 46.5876 132.088 46.8536 132.689C47.1197 133.29 47.5353 133.813 48.0608 134.207C48.533 134.553 48.9068 135.016 49.1451 135.55C49.3833 136.085 49.4779 136.672 49.4193 137.255L48.5255 146.469C48.5255 151.752 53.5127 160.269 55.0142 164.631C55.2377 165.158 56.0331 165.524 56.9001 165.846C57.586 166.136 58.3073 166.335 59.0451 166.436C59.6797 166.436 65.2031 165.078 65.6768 165.086C66.7135 165.086 68.2329 166.204 69.4306 167.634C70.6282 169.064 71.5309 170.762 71.522 171.691C71.513 172.621 70.2439 173.863 70.1992 174.945C70.4446 176.215 71.0142 177.4 71.8527 178.386C72.7911 179.601 73.944 180.691 75.1149 180.763H76.1338V180.548C77.5638 169.269 83.9184 161.038 87.0197 157.212C88.0565 155.89 88.7089 155.246 88.8073 154.755C88.8414 154.589 88.8237 154.417 88.7565 154.262C88.6893 154.107 88.576 153.976 88.4319 153.888V153.888Z" fill="#303030"/>
<path d="M111.044 82.2082C108.363 84.6481 105.896 87.1507 105.833 88.3751C105.823 88.57 105.877 88.7629 105.987 88.9243C106.097 89.0857 106.256 89.2067 106.441 89.2689L106.531 89.3225H106.629C106.979 89.2108 107.343 89.1447 107.71 89.1259C107.983 89.1178 108.248 89.2137 108.452 89.394C107.656 90.1824 106.808 90.9169 105.914 91.5927C105.291 92.1162 104.599 92.5522 103.858 92.8886C103.402 92.8886 103.009 92.8886 102.964 92.12C102.964 91.7803 103.644 90.8777 104.43 90.0911L104.493 90.0196V89.0008L104.368 88.9382C103.823 88.6196 103.21 88.4357 102.58 88.4019C97.6555 88.4019 84.5977 93.3087 81.6394 100.369C80.8976 99.1092 80.54 98.4389 80.0127 97.6881L79.8697 97.4825L79.6731 97.6523C78.1466 99.1389 77.2723 101.17 77.2421 103.301C77.2421 103.891 77.3225 106.518 78.252 107.77C80.0395 110.129 87.1449 113.901 90.8093 115.679C91.5292 116.078 92.2866 116.404 93.0705 116.654H93.1152C93.2795 116.668 93.4432 116.621 93.5751 116.522C93.7071 116.423 93.7979 116.279 93.8302 116.117V116.046V115.974C93.0258 114.357 87.2075 105.473 87.2432 103.077C87.1717 102.47 89.9245 98.2154 90.6127 97.8222C91.3009 97.4289 93.6515 97.4468 94.8044 96.7943C95.6982 96.276 98.8264 93.7466 100.498 93.5679C100.531 94.5462 100.675 95.5176 100.927 96.4637C101.266 97.1072 101.928 97.1429 103.259 97.1429C107.943 97.1429 112.921 96.4368 116.523 89.9303C117.238 88.6254 118.4 87.5976 118.418 86.2569C118.418 85.4972 117.81 85.1844 117.247 85.104C116.713 85.0545 116.185 84.9649 115.665 84.8358C115.423 84.7197 115.334 84.6392 115.325 84.3532C115.699 83.5171 116.206 82.7473 116.827 82.0741C117.604 81.0284 118.409 79.9291 118.418 78.9728C118.443 78.664 118.381 78.3542 118.239 78.079C118.118 77.9208 117.958 77.797 117.775 77.7201C117.591 77.6433 117.39 77.616 117.193 77.6411C116.301 77.9363 115.484 78.4211 114.798 79.0622C113.734 79.8934 112.376 81.0284 111.044 82.2082Z" fill="#303030"/>
<path d="M153.069 119.585C152.389 122.115 153.069 123.598 150.709 123.598C149.717 123.598 149.413 123.33 148.492 121.319C147.815 122.157 147.188 123.034 146.616 123.947C149.047 126.449 149.172 126.735 151.04 126.735C152.648 126.735 155.902 125.672 155.884 123.518V119.567C154.382 119.567 153.909 119.567 153.069 119.585Z" fill="#F9B122"/>
<path d="M87.8956 119.585C88.5838 122.115 87.8956 123.598 90.2551 123.598C91.2472 123.598 91.5511 123.33 92.4716 121.319C93.1492 122.155 93.7731 123.032 94.3396 123.947C91.9175 126.449 91.7924 126.735 89.9244 126.735C88.3157 126.735 85.0624 125.672 85.0803 123.518V119.567C86.5818 119.567 87.0555 119.567 87.8956 119.585Z" fill="#F9B122"/>
<path d="M152.523 134.296C152.615 134.406 152.717 134.508 152.827 134.6C152.738 134.493 152.657 134.386 152.523 134.296Z" fill="#F9B122"/>
<path d="M166.359 122.204C166.531 122.003 166.768 121.87 167.029 121.829V121.301C165.903 121.113 164.535 120.872 163.248 120.702C161.461 123.384 159.557 126.708 157.073 128.192C154.945 129.425 151.174 129.274 149.592 130.543C147.804 131.955 146.58 134.261 145.382 136.719C147.236 135.116 149.46 134.001 151.853 133.474L152.05 133.43V133.483H152.193C158.369 132.965 162.489 126.959 166.359 122.204Z" fill="#F9B122"/>
<path d="M158.664 117.306C159.262 117.306 164.678 117.985 165.188 117.985C166.009 117.906 166.8 117.635 167.497 117.194C168.194 116.753 168.778 116.155 169.201 115.447C170.252 114 170.853 112.274 170.926 110.487C170.852 108.726 170.289 107.02 169.299 105.562C168.486 104.204 167.646 103.319 167.601 102.64C167.617 102.382 167.705 102.133 167.855 101.923C168.005 101.713 168.211 101.549 168.45 101.451C168.621 101.288 168.825 101.166 169.049 101.093C169.294 100.96 169.497 100.76 169.633 100.516C169.769 100.273 169.833 99.9956 169.818 99.7169C169.818 98.4478 168.254 95.561 166.314 92.5669C166.1 92.3613 165.921 92.1915 165.787 92.0842L165.545 91.9859C164.241 91.4497 150.763 85.3006 147.313 85.3185C147.032 85.2834 146.746 85.3097 146.476 85.3957C146.206 85.4817 145.958 85.6252 145.749 85.8164C145.54 86.0076 145.375 86.2419 145.265 86.5032C145.156 86.7644 145.104 87.0463 145.114 87.3295C145.483 88.3637 145.978 89.3483 146.589 90.261C146.614 90.3221 146.635 90.3848 146.651 90.4487C151.844 92.5222 157.376 96.0168 159.218 100.325C159.959 99.0645 160.317 98.3942 160.844 97.6434L160.987 97.4379L161.184 97.6077C162.71 99.0942 163.585 101.126 163.615 103.256C163.615 103.846 163.535 106.474 162.605 107.725C160.817 110.085 153.712 113.856 150.048 115.635C149.328 116.033 148.57 116.359 147.786 116.609H147.742C147.591 116.618 147.441 116.577 147.316 116.493C147.19 116.409 147.095 116.287 147.045 116.144C144.962 118.209 141.727 120.613 141.754 123.294C141.754 123.723 142.647 127.03 142.826 128.156C144.998 119.165 150.629 117.27 158.664 117.306Z" fill="#F9B122"/>
<path d="M168.745 165.667C169.65 164.219 170.457 162.711 171.158 161.154C172.052 159.456 172.946 157.936 174.215 157.892H179.023C182.277 157.936 184.225 153.423 185.28 148.293C186.036 144.257 186.434 140.163 186.468 136.057L186.254 129.122C186.048 126.807 185.95 124.456 185.601 122.204H185.414C182.84 122.365 181.91 123.92 181.454 125.94C180.999 127.96 181.168 130.346 180.882 131.928L180.82 132.277C180.957 133.496 181.02 134.723 181.008 135.95C181.008 137.889 178.711 144.682 178.577 145.165C178.577 145.29 178.711 145.406 178.925 145.567C179.075 145.645 179.202 145.76 179.296 145.901C179.389 146.041 179.446 146.203 179.461 146.371C179.461 148.471 177.289 151.671 174.689 154.415C173.014 156.302 171.009 157.868 168.772 159.036L168.826 159.089H168.566C168.09 159.294 167.582 159.412 167.065 159.438H166.984C166.262 159.647 165.523 159.8 164.777 159.894C162.239 159.894 159.414 158.464 156.733 156.64L168.745 165.667Z" fill="#F9B122"/>
<path d="M88.4409 134.296C88.3337 134.386 88.2264 134.493 88.1102 134.582C88.227 134.495 88.3375 134.399 88.4409 134.296Z" fill="#F9B122"/>
<path d="M91.3724 130.543C89.7904 129.274 86.0098 129.425 83.8916 128.192C81.407 126.708 79.4675 123.357 77.7158 120.702C76.4287 120.872 75.0345 121.113 73.9441 121.301V121.829C74.2014 121.873 74.4352 122.006 74.6055 122.204C78.4397 126.959 82.5957 132.929 88.7537 133.474H88.8967V133.421L89.0933 133.465C91.4863 133.992 93.7102 135.107 95.5641 136.71C94.3844 134.261 93.1688 131.955 91.3724 130.543Z" fill="#F9B122"/>
<path d="M71.9152 101.093C72.1391 101.166 72.3437 101.288 72.514 101.451C72.7524 101.549 72.958 101.713 73.1068 101.923C73.2555 102.134 73.3413 102.382 73.3542 102.64C73.3542 103.319 72.4604 104.204 71.665 105.562C70.6753 107.02 70.1119 108.726 70.0383 110.487C70.1117 112.274 70.7118 114 71.7633 115.447C72.1914 116.152 72.7792 116.747 73.4794 117.183C74.1796 117.619 74.9725 117.885 75.7941 117.959C76.3036 117.959 81.7197 117.288 82.3186 117.279C90.3624 117.279 95.9842 119.138 98.1113 128.21C98.299 127.084 99.1928 123.741 99.1838 123.348C99.1838 120.667 95.9752 118.236 93.8928 116.198C93.8426 116.34 93.7475 116.463 93.6218 116.547C93.4961 116.63 93.3465 116.671 93.1956 116.663H93.1509C92.367 116.413 91.6096 116.087 90.8897 115.688C87.2253 113.901 80.1646 110.138 78.3324 107.779C77.4387 106.527 77.3314 103.9 77.3225 103.31C77.3527 101.179 78.227 99.1479 79.7535 97.6613L79.9501 97.4915L80.0931 97.697C80.6204 98.421 80.9869 99.0913 81.7198 100.378C83.5073 96.0704 89.0933 92.5758 94.2771 90.5023L94.3486 90.3146C94.959 89.4019 95.4544 88.4173 95.8233 87.3831C95.8332 87.0999 95.7816 86.818 95.6719 86.5568C95.5623 86.2956 95.3972 86.0612 95.1882 85.87C94.9791 85.6788 94.731 85.5353 94.4611 85.4493C94.1911 85.3633 93.9058 85.337 93.6246 85.3721C90.1747 85.3721 76.6968 91.5033 75.3919 92.0395L75.1506 92.1378C75.0166 92.2451 74.8378 92.4149 74.6233 92.6205C72.6839 95.6593 71.0483 98.5461 71.1198 99.7706C71.1172 100.043 71.1902 100.311 71.3306 100.544C71.471 100.778 71.6734 100.968 71.9152 101.093V101.093Z" fill="#F9B122"/>
<path d="M74.0871 159.474H74.0066C73.4894 159.447 72.981 159.329 72.5051 159.125H72.2459L72.2996 159.071C70.0629 157.904 68.0579 156.338 66.3829 154.451C63.782 151.68 61.6281 148.48 61.6102 146.407C61.6252 146.239 61.6821 146.077 61.7758 145.936C61.8695 145.796 61.997 145.681 62.1465 145.602C62.361 145.442 62.4861 145.325 62.495 145.2C62.361 144.718 60.0729 137.925 60.064 135.986C60.052 134.759 60.1146 133.532 60.2517 132.312V132.312L60.1891 131.964C59.9031 130.382 60.0551 127.995 59.6171 125.976C59.1792 123.956 58.2318 122.401 55.6578 122.24H55.4701C55.1215 124.492 55.0232 126.842 54.8176 129.157L54.6031 136.093C54.6374 140.199 55.0351 144.293 55.7918 148.328C56.8197 153.432 58.7681 157.972 62.0481 157.927H66.8566C68.1525 157.972 69.0284 159.492 69.9132 161.19C70.6113 162.749 71.4176 164.257 72.3264 165.703L84.4547 156.712C81.7108 158.499 78.9134 159.956 76.4109 159.965C75.6241 159.865 74.8468 159.701 74.0871 159.474V159.474Z" fill="#F9B122"/>
</svg>
